<?xml version="1.0" encoding="UTF-8" standalone="no"?>
<!-- Created with Inkscape (http://www.inkscape.org/) -->

<svg
   xmlns:dc="http://purl.org/dc/elements/1.1/"
   xmlns:cc="http://creativecommons.org/ns#"
   xmlns:rdf="http://www.w3.org/1999/02/22-rdf-syntax-ns#"
   xmlns:svg="http://www.w3.org/2000/svg"
   xmlns="http://www.w3.org/2000/svg"
   xmlns:sodipodi="http://sodipodi.sourceforge.net/DTD/sodipodi-0.dtd"
   xmlns:inkscape="http://www.inkscape.org/namespaces/inkscape"
   width="798"
   height="454"
   id="svg3877"
   version="1.1"
   inkscape:version="0.48.4 r9939"
   sodipodi:docname="96boards.svg">
  <defs
     id="defs3879" />
  <sodipodi:namedview
     id="base"
     pagecolor="#ffffff"
     bordercolor="#666666"
     borderopacity="1.0"
     inkscape:pageopacity="0.0"
     inkscape:pageshadow="2"
     inkscape:zoom="1.4"
     inkscape:cx="452.79905"
     inkscape:cy="220.25413"
     inkscape:document-units="px"
     inkscape:current-layer="layer1"
     showgrid="false"
     inkscape:window-width="3718"
     inkscape:window-height="2124"
     inkscape:window-x="122"
     inkscape:window-y="36"
     inkscape:window-maximized="1"
     fit-margin-top="0"
     fit-margin-left="0"
     fit-margin-right="0"
     fit-margin-bottom="0" />
  <metadata
     id="metadata3882">
    <rdf:RDF>
      <cc:Work
         rdf:about="">
        <dc:format>image/svg+xml</dc:format>
        <dc:type
           rdf:resource="http://purl.org/dc/dcmitype/StillImage" />
        <dc:title />
      </cc:Work>
    </rdf:RDF>
  </metadata>
  <g
     inkscape:label="Layer 1"
     inkscape:groupmode="layer"
     id="layer1"
     transform="translate(2364.7136,496.74239)">
    <g
       id="g3929"
       transform="matrix(0.59759552,0,0,0.59759552,-2051.8582,-233.88048)">
      <path
         style="fill:#c1c1c1;fill-opacity:1"
         d="m -108.34734,228.09905 c 0,-0.70429 11.764257,-16.25843 52.84537,-69.86966 L -2.656597,89.265718 -0.2247848,82.758649 C 1.1127107,79.179761 2.16846,76.21039 2.1213195,76.16009 2.074179,76.109758 -0.94901185,75.702741 -4.5968749,75.255575 -20.469992,73.309864 -31.337318,71.14057 -43.918964,67.406228 -70.241621,59.59345 -92.936359,46.298499 -109.97535,28.70937 c -23.65934,-24.4232105 -34.33988,-54.906878 -33.39626,-95.316949 0.68262,-29.231675 6.01696,-53.282131 16.66317,-75.127661 16.92316,-34.72556 47.661778,-61.28176 84.733203,-73.20407 25.23038,-8.11419 56.180047,-10.07714 84.497905,-5.35926 24.268183,4.0432 46.790858,14.03107 65.684942,29.12854 27.41214,21.90393 45.14322,52.4093 52.46709,90.26665 4.16583,21.533486 4.77407,46.80011 1.64079,68.16155 -2.85533,19.466548 -8.90255,38.8515956 -17.45713,55.960795 -12.66182,25.323692 -33.16491,56.752186 -54.451907,83.467545 -2.216372,2.78154 -24.009163,31.44112 -48.428443,63.68794 l -44.3986932,58.63058 -52.9633468,0 -52.96331,0 0,-0.90598 z M 16.194516,-7.2196078 C 34.677452,-9.2284702 51.67735,-19.85458 62.815949,-36.36129 c 10.43581,-15.465189 12.9453,-35.686687 6.636882,-53.480073 -4.551506,-12.837857 -15.254669,-25.728787 -27.876418,-33.574457 -5.617009,-3.49153 -12.270842,-6.15722 -18.968988,-7.59941 -20.9393131,-4.50856 -42.110401,2.31072 -57.756617,18.60354 -10.27258,10.69714 -16.079456,22.91286 -17.556105,36.932275 -1.659042,15.750621 3.463127,32.055808 14.038937,44.689705 11.576987,13.829898 26.438157,21.9773343 43.2166676,23.6929231 2.5734385,0.2631134 8.6864554,0.1986283 11.6442084,-0.1228209 z m 4.690771,-19.2250062 c -3.22207,-9.72976 -5.119317,-17.633442 -6.705275,-27.933222 -3.271374,-21.245483 -3.209475,-44.045017 0.172903,-63.687944 l 0.350148,-2.03345 1.394751,0 c 0.767112,0 2.618796,0.23207 4.114856,0.51568 9.130069,1.73085 17.396865,6.08466 24.585953,12.94852 8.884075,8.482123 13.628578,16.994183 15.617051,28.018362 0.747935,4.146597 0.721373,13.860773 -0.04982,18.219793 -1.166597,6.593972 -3.577674,12.5618 -7.334785,18.154886 -4.640984,6.908881 -10.896282,12.828883 -17.975918,17.012342 -3.19976,1.890792 -8.734264,4.203958 -10.879104,4.546913 l -1.31314,0.209983 -1.977618,-5.971863 z M 191.79121,221.20214 c -5.37526,-0.56842 -11.56843,-2.76768 -15.67494,-5.56627 -3.8992,-2.65733 -7.74966,-7.11483 -9.95152,-11.52038 -4.94365,-9.89133 -5.13232,-25.29213 -0.43442,-35.46008 2.25113,-4.87233 5.93897,-9.37743 10.14186,-12.38952 11.33125,-8.12076 30.45074,-8.47009 41.82926,-0.76429 9.20428,6.23338 13.94172,16.34026 13.94172,29.74339 0,10.80762 -2.8728,19.20073 -8.7768,25.64215 -4.43811,4.8421 -11.18315,8.46644 -18.25168,9.80732 -3.24423,0.61544 -9.47276,0.86203 -12.82348,0.50768 z m 8.51154,-14.26346 c 4.0813,-1.27402 7.18592,-4.14471 9.38687,-8.67955 3.00607,-6.19369 3.67132,-13.10914 1.94396,-20.20745 -2.25334,-9.25962 -9.36192,-15.2038 -16.5075,-13.80351 -6.19024,1.21305 -10.43447,5.73927 -12.6718,13.51369 -0.64638,2.24614 -0.74903,3.33852 -0.74903,7.97116 0,4.63573 0.10213,5.72101 0.74832,7.95274 2.06043,7.11604 6.26699,11.90322 11.77779,13.40346 2.1012,0.572 3.89956,0.5274 6.07139,-0.15054 z m 54.24527,14.26184 c -8.74787,-1.23195 -15.11475,-6.64681 -17.26725,-14.68535 -0.75137,-2.80595 -0.74734,-9.40483 0.007,-12.32296 1.41151,-5.45654 5.16043,-10.38284 10.22895,-13.44136 5.97381,-3.60482 16.69278,-6.07845 26.34436,-6.07959 2.27142,-2.6e-4 2.35881,-0.0293 2.35881,-0.77938 0,-1.5822 -1.30014,-4.95862 -2.40758,-6.25242 -2.11991,-2.47662 -6.13601,-4.03048 -10.41727,-4.03048 -4.41186,0 -11.74015,1.86721 -15.39465,3.92247 -3.05705,1.71926 -2.99813,1.77499 -4.92071,-4.65451 -0.92306,-3.08679 -1.677,-5.93965 -1.67544,-6.33971 0.004,-0.91763 2.54586,-2.25499 7.26748,-3.82303 6.26865,-2.08181 12.79355,-2.96319 19.73969,-2.6665 4.78533,0.20442 7.7929,0.73055 11.15744,1.95183 8.3978,3.04823 13.58335,10.2759 14.85912,20.71083 0.19059,1.55899 0.34042,9.90008 0.34478,19.19585 0.007,14.92497 0.16729,19.89989 0.83638,25.95546 l 0.22466,2.03346 -8.47185,0 -8.47181,0 -0.41092,-2.84684 c -0.22599,-1.56576 -0.44694,-2.89402 -0.49096,-2.95164 -0.044,-0.0577 -1.00898,0.64664 -2.14431,1.56505 -2.58122,2.08812 -6.51139,4.04609 -9.76971,4.86719 -2.92099,0.73611 -8.68437,1.07191 -11.52675,0.67163 z m 14.59487,-14.90536 c 2.58175,-1.27099 5.155,-3.79001 6.34316,-6.2094 0.85457,-1.74015 0.90194,-2.08698 1.00043,-7.3252 l 0.10336,-5.49854 -3.84493,0.19619 c -4.47872,0.22849 -8.48844,1.13073 -11.40393,2.56603 -7.71849,3.7998 -8.41299,13.29602 -1.22554,16.75762 1.40162,0.67508 1.99396,0.76696 4.27986,0.66395 2.17174,-0.0979 3.03314,-0.30665 4.74759,-1.15065 z m 105.35401,14.87311 c -6.22818,-0.80599 -11.47789,-3.54833 -15.98137,-8.34831 -3.12654,-3.33236 -5.43769,-7.25222 -6.93689,-11.7653 -1.54699,-4.65698 -2.14984,-8.81649 -2.14984,-14.83361 0,-7.81193 1.09843,-13.36747 3.75367,-18.98486 1.86447,-3.94446 3.68707,-6.46328 6.89043,-9.52264 5.13555,-4.90464 10.81547,-7.27979 18.30852,-7.65593 7.88455,-0.39582 14.75153,1.7016 18.78916,5.73885 l 1.0574,1.0573 0,-17.93303 0,-17.93306 9.24974,0 9.24976,0 0.16453,47.9083 c 0.0905,26.34956 0.26191,48.60374 0.38093,49.45372 l 0.21642,1.54543 -8.45567,0 -8.45565,0 -0.23113,-4.15557 -0.23116,-4.15561 -2.65199,2.63878 c -1.54523,1.53752 -3.53454,3.127 -4.76679,3.80868 -5.15028,2.84915 -11.70003,3.97803 -18.20007,3.13686 z m 12.11814,-15.42331 c 5.69567,-1.48352 9.72215,-5.68799 11.11818,-11.60969 0.69336,-2.94103 0.69098,-15.32063 -0.003,-17.98664 -0.7433,-2.85374 -2.27887,-5.46402 -4.41049,-7.49722 -2.13633,-2.03772 -4.37932,-3.18365 -7.35035,-3.7552 -3.98675,-0.76695 -9.01808,1.13428 -12.20508,4.61205 -5.12881,5.59667 -6.99689,16.24204 -4.32096,24.62321 1.96546,6.15588 5.79715,10.09471 11.18956,11.50235 2.68456,0.70081 3.64991,0.71874 5.98257,0.11114 z m 52.17415,14.94156 c -5.63757,-0.87695 -12.90148,-3.49869 -12.91003,-4.65958 -0.003,-0.28823 0.76653,-3.41426 1.7081,-6.94669 1.4326,-5.37448 1.80903,-6.42309 2.30676,-6.42573 0.32714,-0.003 1.64482,0.5003 2.92818,1.11557 5.23104,2.50796 11.6379,3.97911 15.82341,3.63339 5.77867,-0.47726 9.25475,-3.88801 8.14871,-7.99556 -0.72502,-2.6925 -3.79554,-4.80785 -10.80167,-7.44155 -10.72825,-4.03285 -16.43827,-9.12581 -17.8518,-15.92254 -0.61778,-2.97064 -0.23263,-8.86546 0.75384,-11.53739 3.2441,-8.78669 11.32427,-13.89965 22.85395,-14.46147 6.37013,-0.31039 13.20473,0.76051 18.2451,2.85884 1.93319,0.8048 2.41484,1.14362 2.41484,1.6988 0,0.38142 -0.75635,3.44234 -1.68077,6.80207 -1.48192,5.3859 -1.75939,6.10855 -2.34541,6.10855 -0.36557,0 -1.86154,-0.51406 -3.3244,-1.14239 -8.45375,-3.63094 -15.5557,-3.36041 -18.33692,0.69854 -1.80513,2.63439 -0.95449,5.40204 2.33555,7.59902 1.03521,0.69131 4.18736,2.15527 7.00473,3.25324 8.10055,3.15694 12.08864,5.57135 14.8967,9.01854 2.83168,3.47621 4.04372,7.3077 4.04372,12.78304 0,4.16176 -0.59221,6.83541 -2.19054,9.88974 -3.14018,6.00065 -9.73041,9.9453 -18.78513,11.24405 -3.19669,0.45849 -11.81329,0.36208 -15.23692,-0.17049 z m -335.81947,-0.006 c -6.908949,-0.50843 -10.845465,-0.85295 -11.468712,-1.00378 l -0.732046,-0.17715 0,-46.13011 c 0,-41.59218 0.0502,-46.14938 0.510122,-46.32588 0.965747,-0.37058 7.797681,-1.14336 13.480076,-1.52477 7.48905,-0.5027 21.18852,-0.22931 25.37757,0.50641 9.64865,1.69457 17.55907,6.63647 20.60454,12.87229 1.69193,3.46439 2.1702,5.68376 2.1702,10.07089 0,4.38427 -0.47833,6.6066 -2.16565,10.06172 -1.48667,3.04414 -5.13053,6.81593 -8.50581,8.80439 l -2.37495,1.39915 2.07735,0.8764 c 6.14967,2.59454 10.83619,7.4453 13.03978,13.4968 0.86065,2.3636 0.9659,3.09848 1.09663,7.65749 0.17901,6.24269 -0.27141,8.70086 -2.37514,12.96199 -3.44019,6.96819 -10.38646,12.07962 -19.56644,14.39806 -6.07197,1.53349 -10.06588,1.94015 -20.26818,2.06358 -5.09992,0.0617 -10.00462,0.0583 -10.89934,-0.007 z m 17.60224,-14.45292 c 9.34961,-1.17234 14.47195,-5.03731 15.92742,-12.01774 1.16216,-5.57373 -1.78593,-11.20449 -7.33217,-14.00422 -3.68486,-1.86011 -6.27343,-2.34655 -13.42737,-2.52331 l -6.42573,-0.15877 0,14.33868 0,14.33865 2.19614,0.11381 c 4.74511,0.24594 6.54357,0.22866 9.06171,-0.0871 z m 3.00522,-43.57299 c 4.91359,-1.42062 7.8228,-3.58461 9.55713,-7.10891 0.93048,-1.89079 1.067,-2.49074 1.05122,-4.61917 -0.0404,-5.45865 -3.66436,-9.37412 -10.14914,-10.96565 -2.37316,-0.58245 -10.33138,-0.77073 -13.17685,-0.31175 l -1.54543,0.24925 0,11.89873 0,11.8987 5.9377,-0.17543 c 4.70041,-0.13887 6.43526,-0.31927 8.32537,-0.86577 z m 184.0901,26.73898 c -0.11583,-16.77604 -0.30505,-32.14899 -0.42052,-34.16211 l -0.20989,-3.66023 8.13046,0 8.13048,0 0.2121,3.46684 c 0.11667,1.90673 0.21213,4.20262 0.21213,5.10193 l 0,1.63513 1.22008,-2.01446 c 4.22673,-6.97887 11.50693,-10.54991 19.71563,-9.67084 l 2.16439,0.23178 0,8.72806 0,8.72807 -4.63629,-0.0508 -4.63629,-0.0507 -2.45801,1.1739 c -4.23194,2.02107 -6.77903,5.21519 -8.19003,10.27057 -0.68662,2.46006 -0.71441,3.18892 -0.82519,21.66024 l -0.11465,19.11452 -9.0419,0 -9.0419,0 -0.2106,-30.50189 z M 152.91147,72.631274 c -7.96992,-0.562438 -23.44685,-2.621958 -24.47399,-3.256755 -0.71386,-0.441212 -0.0768,-2.035314 1.97339,-4.937532 9.22348,-13.056792 19.08654,-29.171582 24.93285,-40.736629 5.9214,-11.713538 11.41535,-26.1878624 14.5078,-38.222231 0.41385,-1.6105 0.90771,-3.035744 1.09745,-3.167219 0.18972,-0.131475 0.795,-0.241282 1.34505,-0.244015 1.8359,-0.0091 7.09176,-1.038886 10.95035,-2.145413 10.05603,-2.883771 18.8269,-8.228027 27.12911,-16.530266 9.93093,-9.930927 15.43711,-20.222247 17.89532,-33.447312 0.78371,-4.216288 0.94558,-13.00851 0.32529,-17.670304 -1.91142,-14.365718 -7.66874,-25.861628 -18.2522,-36.445118 -12.7888,-12.78877 -27.70596,-19.02765 -45.49522,-19.02765 l -4.94983,0 -2.5548,-5.12431 c -13.82528,-27.73027 -34.87548,-50.34019 -61.88262,-66.46783 -6.973398,-4.16426 -18.454256,-9.53748 -25.919758,-12.13084 -1.50408,-0.52248 -0.654345,-1.8795 12.054824,-19.25139 1.701888,-2.32628 24.167514,-30.91264 49.923564,-63.52526 l 46.82923,-59.29567 53.0035,0 53.00349,0 0,0.83209 c 0,0.61736 -14.16654,18.58836 -54.9034,69.6478 -30.19686,37.84866 -54.94058,68.91738 -54.98606,69.0416 -0.0455,0.12422 2.33968,1.14957 5.30033,2.27858 4.73591,1.80597 6.00768,2.14759 10.57936,2.84193 32.83502,4.98672 60.1477,15.96015 81.8873,32.8999 26.19066,20.40806 41.71828,47.74842 45.94947,80.90571 1.09091,8.54896 1.40956,15.588273 1.20973,26.724699 -0.40487,22.561603 -3.31643,40.292781 -9.6629,58.846746 -17.80516,52.053365 -61.16518,87.629042 -116.81666,95.844737 -9.27521,1.369283 -13.88323,1.683932 -26.17244,1.787134 -6.62095,0.0556 -12.84333,0.04425 -13.82753,-0.02505 z"
         id="path3931"
         inkscape:connector-curvature="0" />
    </g>
  </g>
</svg>
