<?xml version="1.0" encoding="UTF-8" standalone="no"?>
<!-- Created with Inkscape (http://www.inkscape.org/) -->

<svg
   xmlns:dc="http://purl.org/dc/elements/1.1/"
   xmlns:cc="http://creativecommons.org/ns#"
   xmlns:rdf="http://www.w3.org/1999/02/22-rdf-syntax-ns#"
   xmlns:svg="http://www.w3.org/2000/svg"
   xmlns="http://www.w3.org/2000/svg"
   xmlns:sodipodi="http://sodipodi.sourceforge.net/DTD/sodipodi-0.dtd"
   xmlns:inkscape="http://www.inkscape.org/namespaces/inkscape"
   width="798"
   height="454"
   id="svg3877"
   version="1.1"
   inkscape:version="0.48.4 r9939"
   sodipodi:docname="linaro.svg">
  <defs
     id="defs3879" />
  <sodipodi:namedview
     id="base"
     pagecolor="#ffffff"
     bordercolor="#666666"
     borderopacity="1.0"
     inkscape:pageopacity="0.0"
     inkscape:pageshadow="2"
     inkscape:zoom="0.49497475"
     inkscape:cx="791.5496"
     inkscape:cy="-423.90133"
     inkscape:document-units="px"
     inkscape:current-layer="layer1"
     showgrid="false"
     inkscape:window-width="3718"
     inkscape:window-height="2124"
     inkscape:window-x="122"
     inkscape:window-y="36"
     inkscape:window-maximized="1"
     fit-margin-top="0"
     fit-margin-left="0"
     fit-margin-right="0"
     fit-margin-bottom="0" />
  <metadata
     id="metadata3882">
    <rdf:RDF>
      <cc:Work
         rdf:about="">
        <dc:format>image/svg+xml</dc:format>
        <dc:type
           rdf:resource="http://purl.org/dc/dcmitype/StillImage" />
        <dc:title />
      </cc:Work>
    </rdf:RDF>
  </metadata>
  <g
     inkscape:label="Layer 1"
     inkscape:groupmode="layer"
     id="layer1"
     transform="translate(-731.17463,487.2301)">
    <g
       id="g4500"
       transform="translate(-363.93184,-164.70923)">
      <path
         style="fill:#c1c1c1;fill-opacity:1"
         d="m 1221.0537,51.700137 c -0.6155,-0.615498 -1.119,-10.030274 -1.119,-20.921732 0,-23.8958021 0.5773,-24.8782709 14.6193,-24.8782709 11.4164,0 11.6054,-0.3643056 10.8893,-20.9946481 l -0.4766,-13.72727 -20.6545,-0.807487 c -22.1327,-0.865286 -22.8693,-1.164928 -24.8103,-10.093581 -0.6496,-2.987651 -1.9915,-4.441175 -4.0998,-4.441175 -7.8738,0 -9.3819,-2.577255 -9.3819,-16.033758 0,-13.50069 0.6917,-14.650728 8.8126,-14.650728 2.8634,0 3.9346,-1.155723 4.7224,-5.094739 1.8569,-9.283979 2.3556,-9.440018 30.1754,-9.440018 31.0152,0 30.5784,-0.293586 30.5784,20.54651 l 0,13.367922 18.5722,0 18.5722,0 0,-13.367922 c 0,-21.218145 -1.1607,-20.54651 35.5056,-20.54651 25.5536,0 30.8875,0.41001 33.0154,2.537817 2.1277,2.127808 2.5378,7.461789 2.5378,33.015361 0,37.253485 1.1705,35.505632 -23.7765,35.505632 l -16.5979,0 0,19.20076856 c 0,27.53853444 1.1016,26.60354644 -32.5568,27.63344644 l -26.3897,0.807487 -0.8075,11.30481 -0.8074,11.304811 -22.7019,0.446185 c -12.4858,0.245395 -23.2052,-0.05749 -23.8208,-0.672911 z m 165.8556,-74.090243 -4.0657,-4.065662 0.5055,-28.987682 c 0.4402,-25.254511 0.8768,-29.358545 3.3892,-31.867486 2.5595,-2.556002 6.253,-2.87982 32.8459,-2.87982 38.8267,0 36.1365,-2.663785 36.1365,35.781728 0,38.157256 2.0872,36.084568 -36.3369,36.084568 -28.2021,0 -28.4384,-0.02955 -32.4745,-4.065646 z m 86.5761,0.8357 c -2.9951,-2.995193 -3.2299,-5.383238 -3.2299,-32.856641 0,-38.602876 -2.8035,-35.779709 35.5294,-35.779709 38.3328,0 35.5294,-2.823167 35.5294,35.779709 0,38.962902 2.8318,36.086587 -35.5294,36.086587 -26.9163,0 -29.3087,-0.239258 -32.2995,-3.229946 z m 85.7108,-1.025282 c -3.0925,-3.931474 -3.3472,-6.375332 -3.3472,-32.120536 0,-37.640384 -2.103,-35.322688 32.6921,-36.028657 31.5813,-0.640757 37.5197,0.840771 39.1965,9.778661 0.5622,2.99655 0.7872,16.925595 0.4998,30.953395 -0.6895,33.687302 1.6593,31.672365 -36.9207,31.672365 l -28.7733,0 -3.3472,-4.255228 z m 87.4506,1.7412 c -3.4935,-2.446927 -3.5892,-3.327717 -3.5892,-32.991604 0,-33.742777 0.2275,-34.540606 10.397,-36.448406 2.9966,-0.562139 16.3429,-0.772377 29.6587,-0.467179 33.0887,0.758424 31.0031,-1.685741 31.0031,36.33463 0,38.93267 2.7739,36.086587 -35.1701,36.086587 -23.3711,0 -29.3776,-0.467519 -32.2995,-2.514028 z m 85.2343,-0.715918 c -2.9892,-2.989202 -3.23,-5.383238 -3.23,-32.120552 0,-38.708641 -2.0272,-36.337473 31.6945,-37.071058 31.4815,-0.684862 36.8996,0.562963 39.4412,9.083754 1.0963,3.674952 1.5858,15.935859 1.2612,31.588403 -0.7006,33.78638 1.6761,31.749399 -37.0464,31.749399 -26.7373,0 -29.1314,-0.240744 -32.1205,-3.229946 z m -459.3445,-47.757059 c -3.2261,-3.226087 -3.394,-15.735699 -0.2465,-18.348031 1.32,-1.095468 5.9415,-1.692799 10.9011,-1.408967 l 8.6098,0.49268 0.5004,8.833304 c 0.3933,6.941574 -0.1049,9.276146 -2.3275,10.901068 -3.9284,2.872552 -14.3763,2.590901 -17.4373,-0.470054 z m 474.1163,-31.404005 c -15.0969,-3.16969 -28.4589,-14.75735 -33.3849,-28.95167 -8.6854,-25.02723 -1.6784,-52.51782 16.4463,-64.52309 20.1198,-13.32682 53.3004,-9.63781 66.2714,7.36804 9.924,13.01104 13.4402,38.85805 7.6131,55.96005 -3.2994,9.6829 -14.7221,22.37768 -24.1033,26.7874 -8.5238,4.00665 -22.8029,5.467165 -32.8426,3.35927 z m 18.9831,-20.07723 c 8.5067,-4.39899 13.2865,-15.90196 13.3805,-32.20119 0.113,-19.65682 -6.9762,-30.05781 -20.4884,-30.05781 -9.5466,0 -16.0996,5.60867 -19.353,16.56405 -8.2829,27.89104 7.6577,55.41844 26.4609,45.69495 z m -213.9476,16.84342 c -8.7627,-4.33757 -13.6041,-12.98775 -13.6041,-24.30708 0,-21.52126 15.3153,-33.95768 45.2193,-36.71948 11.6714,-1.07793 12.1308,-1.27916 12.6203,-5.52894 0.3482,-3.02349 -0.7713,-5.68957 -3.5603,-8.47861 -3.3516,-3.35154 -5.6176,-4.06831 -12.8618,-4.06831 -7.3908,0 -10.1476,0.91123 -17.2828,5.71292 l -8.4893,5.71292 -4.7317,-4.50169 c -8.4909,-8.07805 -8.8581,-10.19974 -2.6645,-15.38782 3.013,-2.52377 10.4509,-6.10356 16.5289,-7.9551 21.1127,-6.43164 44.1864,-1.64393 53.9958,11.20394 4.3435,5.68889 4.4071,6.12971 5.2047,36.04113 0.4441,16.65499 1.3797,30.85216 2.0791,31.54927 0.6995,0.6971 3.2153,1.30086 5.5908,1.34167 5.4739,0.094 10.2324,7.42989 7.5643,11.6611 -2.4145,3.82906 -11.3242,6.71768 -21.1665,6.86241 -6.7651,0.0995 -9.3112,-0.6821 -13.3831,-4.10833 l -5.0285,-4.23121 -9.4284,4.23121 c -12.0475,5.406642 -26.847,5.798854 -36.6022,0.97 z m 39.0006,-18.48619 5.6668,-2.36771 -0.47,-13.37827 -0.4699,-13.37828 -5.6524,0.45641 c -9.9187,0.80088 -19.2599,5.1246 -21.8366,10.10742 -3.1605,6.11162 -3.0305,14.31145 0.2848,17.97478 3.3174,3.66576 14.4136,3.95487 22.4773,0.58565 z m -291.5638,17.00864 c -1.0728,-2.00444 -1.6718,-26.34738 -1.6718,-67.93503 0,-41.58766 0.599,-65.9306 1.6718,-67.93503 1.406,-2.62703 3.4513,-3.12378 12.8629,-3.12378 9.4996,0 11.4499,0.48321 12.902,3.19669 1.1136,2.08083 1.6833,22.51642 1.632,58.54277 -0.044,30.44035 -0.061,56.2545 -0.039,57.36479 0.031,1.53565 6.7256,2.01872 27.9789,2.01872 19.5771,0 28.519,0.58002 29.877,1.93797 1.0659,1.06588 1.938,4.64014 1.938,7.94277 0,11.78024 2.6213,11.11391 -43.7202,11.11391 -39.6337,0 -41.8448,-0.15908 -43.4315,-3.12378 z m 94.3703,1.15663 c -0.4453,-1.16028 -0.6165,-23.17616 -0.3803,-48.92416 l 0.4291,-46.81456 12.1122,0 12.1123,0 0,48.44919 0,48.44919 -11.7319,0.47496 c -8.5184,0.34487 -11.9536,-0.10287 -12.5414,-1.63462 z m 45.5274,0.75592 c -0.4062,-0.66618 -0.9923,-22.65 -1.3024,-48.85293 l -0.5636,-47.64171 10.4883,-0.49116 c 8.976,-0.42034 10.8749,-0.0129 13.1701,2.82099 l 2.6822,3.31215 8.6276,-4.01644 c 21.8091,-10.15276 46.8764,-0.22127 52.9642,20.98408 1.2106,4.21673 1.6859,18.23652 1.3687,40.37433 l -0.486,33.91443 -12.1123,0 -12.1123,0 -0.8074,-34.99908 c -0.7912,-34.29363 -0.8865,-35.08301 -4.7227,-39.16309 -3.2627,-3.47008 -5.3572,-4.16402 -12.5679,-4.16402 -4.759,0 -11.173,1.05303 -14.2533,2.34005 l -5.6005,2.34006 0,34.67224 c 0,19.06973 -0.4411,35.82178 -0.9803,37.22678 -0.7615,1.98459 -3.4427,2.55455 -12.017,2.55455 -6.0702,0 -11.3691,-0.54506 -11.7754,-1.21123 z m 205.8223,-1.00322 c -1.3028,-1.56984 -1.713,-15.79042 -1.4089,-48.85294 l 0.4288,-46.63848 11.2021,0 11.2022,0 1.459,5.65241 c 0.8025,3.10882 1.6762,5.87433 1.9417,6.14558 0.2655,0.27127 2.562,-1.43863 5.1034,-3.79975 6.7976,-6.31511 15.7795,-10.42402 22.7251,-10.39597 9.4292,0.0381 10.7706,1.56455 9.4011,10.69779 -1.8633,12.42765 -2.9086,13.50208 -13.1334,13.50208 -9.4016,0 -13.6469,1.50233 -19.6205,6.94322 -3.5213,3.20729 -3.6337,4.24578 -3.6337,33.58054 0,16.64898 -0.441,31.42042 -0.9803,32.82542 -1.3055,3.40244 -21.9095,3.68629 -24.6866,0.3401 z m -247.7293,-114.08329 c -12.4207,-9.77028 -1.5392,-29.16572 13.4347,-23.9458 5.1304,1.78847 9.6407,8.48778 9.6407,14.31967 0,1.88891 -2.1243,5.55869 -4.7207,8.15507 -5.6413,5.64126 -12.3676,6.18037 -18.3547,1.47106 z"
         id="path4514"
         inkscape:connector-curvature="0" />
      <path
         style="fill:#c1c1c1;fill-opacity:1"
         d="m 1223.5683,51.664785 c -2.9001,-1.170209 -2.8489,-39.835197 0.057,-42.2459801 1.141,-0.9469717 6.4098,-1.944379 11.7085,-2.2164697 l 9.634,-0.4947146 0.4611,-17.6339056 c 0.3406,-13.020639 -0.082,-17.978541 -1.615,-18.951207 -1.1418,-0.724509 -10.2,-1.328428 -20.1292,-1.342026 -20.3475,-0.02787 -23.1287,-1.286229 -23.1287,-10.464621 0,-5.49627 -2.0671,-7.324807 -8.2807,-7.324807 -2.8858,0 -3.1286,-0.981274 -2.6941,-10.890586 0.4688,-10.690314 0.5662,-10.905848 5.2969,-11.719988 4.1476,-0.713802 4.9625,-1.709837 5.846,-7.145949 1.5893,-9.777304 3.8875,-10.617801 29.0311,-10.617801 28.6388,0 28.722,0.05717 29.3174,20.187162 l 0.4299,14.534757 19.3797,0 19.3797,0 0.8075,-13.892208 c 0.4824,-8.299685 1.6997,-14.963531 3.0239,-16.553472 3.2377,-3.887402 58.3938,-3.996768 62.2672,-0.123384 3.8732,3.87327 3.7638,59.029409 -0.1228,62.267107 -1.723,1.435065 -8.6976,2.501124 -19.7834,3.02394 l -17.1222,0.807421 -0.4561,20.11789607 c -0.6179,27.25013293 0.985,25.90883293 -30.9632,25.90883293 -17.4983,0 -25.8621,0.595829 -27.2043,1.937968 -1.0658,1.065882 -1.9379,6.007699 -1.9379,10.981816 0,4.974117 -0.8721,9.915934 -1.938,10.981816 -1.9249,1.924854 -36.8241,2.659344 -41.2626,0.868403 z m 166.2979,-74.118246 c -3.4861,-2.441726 -3.5893,-3.361599 -3.5893,-31.976465 0,-20.76193 0.5723,-30.034734 1.9379,-31.400403 2.7292,-2.729159 59.6089,-2.729159 62.338,0 1.3656,1.365669 1.938,10.638473 1.938,31.400403 0,37.147366 2.5503,34.490493 -33.107,34.490493 -20.8533,0 -26.6309,-0.492066 -29.5176,-2.514028 z m 88.4641,1.446595 c -5.8163,-2.206747 -6.4599,-5.565374 -6.4599,-33.71285 0,-24.787267 0.3109,-27.984365 2.9533,-30.375817 2.5116,-2.272913 7.1855,-2.672764 31.2419,-2.672764 25.3541,0 28.5654,0.306328 30.9609,2.953366 2.2662,2.504064 2.6728,7.125277 2.6728,30.375816 0,21.114156 -0.5266,28.143601 -2.2891,30.557323 -2.091,2.863654 -4.6409,3.163393 -29.4732,3.464456 -14.9513,0.181265 -28.2743,-0.08398 -29.6067,-0.58953 z m 85.5936,-0.109656 c -1.3324,-0.507182 -2.9564,-1.721594 -3.609,-2.698701 -2.1049,-3.151781 -1.4631,-59.849912 0.702,-62.015058 2.7292,-2.729159 59.6089,-2.729159 62.338,0 1.3656,1.36567 1.938,10.638473 1.938,31.400404 0,37.180553 2.5421,34.538376 -33.0626,34.36299 -14.2361,-0.07017 -26.974,-0.542501 -28.3064,-1.049684 z m 85.5936,-0.855225 -4.0375,-2.097301 -0.4396,-29.275939 c -0.3758,-25.028382 -0.066,-29.649337 2.1341,-31.849592 2.1629,-2.162949 7.1803,-2.573718 31.4362,-2.573718 27.9951,0 28.9382,0.10788 31.3767,3.589294 3.5114,5.013312 3.6999,55.538193 0.2249,60.297211 -2.085,2.855563 -4.711,3.173745 -29.4732,3.571077 -19.8711,0.318876 -28.2703,-0.128068 -31.2216,-1.661081 z m 86.713,0.901461 c -4.8534,-1.257918 -5.9644,-7.617617 -5.9644,-34.144339 0,-34.967879 -2.5134,-32.553672 33.8907,-32.553672 24.0854,0 29.2825,0.420039 31.4004,2.537817 2.1177,2.117763 2.5378,7.314988 2.5378,31.400388 0,36.500972 2.492,33.960652 -33.0626,33.703322 -14.2361,-0.103035 -27.1969,-0.527644 -28.8019,-0.943564 z m -464.3428,-50.144538 c -1.506,-2.926024 -1.1344,-13.854675 0.5648,-16.603811 1.3817,-2.235866 15.9065,-1.938226 18.218,0.373333 2.0387,2.038661 2.6258,12.155207 0.9577,16.502133 -1.4692,3.8286 -17.7454,3.604603 -19.7405,-0.271655 z m 285.1251,-31.358976 c -16.471,-4.55389 -22.8939,-23.97347 -13.887,-41.98628 5.3707,-10.74085 16.676,-16.27192 38.974,-19.06784 7.2289,-0.90644 13.8196,-2.32408 14.6458,-3.15031 2.0075,-2.00738 0.2458,-8.50718 -3.5891,-13.24305 -2.6928,-3.32557 -4.5038,-3.83791 -13.5667,-3.83791 -9.3089,0 -11.2958,0.60095 -18.0683,5.46457 l -7.6093,5.46458 -5.8798,-5.87976 c -7.3171,-7.31713 -6.3339,-9.58465 7.0909,-16.3542 16.1925,-8.16517 41.0014,-7.6087 54.0924,1.21328 10.7242,7.22704 11.9466,11.49131 12.8472,44.81345 l 0.8075,29.877 4.8449,0.54665 c 6.5612,0.74029 9.1401,3.20984 8.5604,8.19746 -0.4054,3.48703 -1.9458,4.65978 -9.3399,7.11111 -10.556,3.499586 -17.3553,2.62035 -24.1863,-3.12759 l -4.8739,-4.10106 -8.4973,4.07012 c -9.8397,4.71317 -23.6095,6.41062 -32.3655,3.98978 z m 33.9619,-19.06544 6.8636,-3.11552 0,-14.00621 0,-14.00621 -8.4786,0.71981 c -11.8421,1.00534 -20.4788,5.47733 -23.212,12.01887 -3.0994,7.41788 -2.7789,12.35957 1.1234,17.32049 4.1636,5.29323 13.4723,5.71295 23.7036,1.06877 z m 154.6337,19.43581 c -20.7253,-5.06793 -32.9448,-21.22418 -34.3804,-45.45611 -1.3961,-23.5656 6.7835,-39.61688 24.6776,-48.42612 9.5916,-4.72193 11.2336,-5.02208 24.5261,-4.48364 17.8933,0.72482 27.681,5.03882 35.0417,15.44478 7.4428,10.52189 8.8244,15.70745 8.9429,33.56479 0.09,13.73496 -0.4643,17.37674 -3.7141,24.35581 -9.4421,20.27754 -32.1914,30.600785 -55.0938,25.00049 z m 23.9045,-19.51606 c 8.9151,-7.0126 13.5953,-31.49852 8.9708,-46.93355 -4.0828,-13.62727 -18.8564,-19.91982 -30.143,-12.83884 -7.9243,4.97155 -11.5438,14.35656 -11.5438,29.93215 0,14.73837 3.2459,23.94033 10.4413,29.6002 5.8703,4.61748 16.5631,4.73272 22.2747,0.24004 z m -469.6955,15.80907 c -0.432,-1.12589 -0.5956,-32.20624 -0.3636,-69.06743 l 0.422,-67.02036 12.1123,0 12.1123,0 0.8075,59.754 0.8075,59.75399 29.0695,0.80749 29.0695,0.80749 0,8.07486 0,8.07487 -41.6258,0.43108 c -32.4368,0.33593 -41.799,-0.0208 -42.4112,-1.61599 z m 94.5343,-45.64931 0,-47.6417 11.3048,0 11.3049,0 0,47.6417 0,47.6417 -11.3049,0 -11.3048,0 0,-47.6417 z m 44.681,46.56505 c -0.5922,-0.59215 -1.0767,-22.03091 -1.0767,-47.6417 l 0,-46.56505 10.3003,0 c 8.5093,0 10.6856,0.56493 12.516,3.24866 2.2024,3.22909 2.2636,3.22423 10.1606,-0.80748 14.4893,-7.39735 36.0362,-4.6394 45.676,5.84643 7.7191,8.39661 8.5556,13.43085 8.5556,51.48527 l 0,35.65203 -11.7085,-0.4745 -11.7086,-0.47449 -0.8074,-35.26891 -0.8075,-35.26891 -4.7586,-4.08971 c -4.225,-3.63122 -5.7904,-3.99614 -13.9637,-3.25501 -5.0627,0.45907 -11.2789,1.82816 -13.8136,3.04241 l -4.6085,2.20772 -0.4341,36.71995 -0.434,36.71994 -11.0054,0 c -6.0529,0 -11.4898,-0.48449 -12.0819,-1.07665 z m 206.7826,0.0662 c -0.6285,-0.62859 -1.1428,-22.09712 -1.1428,-47.70791 l 0,-46.56505 10.4783,0 10.4783,0 1.0386,6.49568 c 1.2204,7.63165 3.0342,9.34071 5.3402,5.03182 0.9118,-1.70373 5.0699,-5.35779 9.2402,-8.12008 6.0549,-4.01055 9.2814,-5.02239 16.0152,-5.02239 9.9247,0 10.8032,1.26379 8.1477,11.722 -2.4174,9.52061 -3.0117,10.04533 -10.7475,9.48679 -8.3594,-0.60356 -16.2752,2.10867 -21.0876,7.22542 -3.7489,3.98569 -3.8968,5.12102 -4.6788,35.88628 l -0.8074,31.7704 -10.5658,0.46989 c -5.8112,0.25843 -11.0801,-0.0444 -11.7086,-0.67291 z M 1396.084,-221.22136 c -5.9322,-7.54141 -3.8564,-16.41375 4.6659,-19.9438 3.943,-1.63321 5.8703,-1.63321 9.8133,0 13.0982,5.42547 9.2917,24.19903 -4.9067,24.19903 -4.8019,0 -6.9908,-0.97302 -9.5725,-4.25523 z"
         id="path4512"
         inkscape:connector-curvature="0" />
      <path
         style="fill:#c1c1c1;fill-opacity:1"
         d="m 1223.5683,51.664785 c -2.9001,-1.170209 -2.8489,-39.835197 0.057,-42.2459801 1.141,-0.9469717 6.4098,-1.944379 11.7085,-2.2164697 l 9.634,-0.4947146 0.4611,-17.6339056 c 0.3406,-13.020639 -0.082,-17.978541 -1.615,-18.951207 -1.1418,-0.724509 -10.2,-1.328428 -20.1292,-1.342026 -12.9857,-0.01777 -18.6657,-0.63743 -20.2359,-2.207572 -1.6612,-1.661145 -2.1381,-8.085216 -1.9953,-26.87864 0.1673,-22.062016 0.5069,-24.929433 3.1836,-26.886667 2.1773,-1.592073 9.0425,-2.190873 25.1181,-2.190873 28.6388,0 28.722,0.05717 29.3174,20.187162 l 0.4299,14.534757 20.9947,0.205521 20.9946,0.205505 0,-14.395432 c 0,-11.038696 0.565,-14.752504 2.4225,-15.926767 3.7023,-2.340386 57.0541,-2.019749 59.431,0.357168 2.3768,2.376772 2.6977,55.728388 0.3574,59.431004 -1.199,1.897077 -5.134,2.42246 -18.1437,2.42246 -13.2023,0 -16.8379,0.497298 -17.7103,2.422459 -0.6039,1.332353 -1.1489,11.2123695 -1.2112,21.9555733 -0.1519,26.0302467 1.2839,24.8786417 -31.0059,24.8786417 -17.2801,0 -25.5834,0.59767 -26.9237,1.937968 -1.0659,1.065882 -1.938,6.007699 -1.938,10.981816 0,4.974117 -0.8721,9.915934 -1.9379,10.981816 -1.9249,1.924854 -36.8242,2.659344 -41.2626,0.868403 z m 165.4346,-75.87629 c -2.0561,-2.056216 -1.2868,-57.890175 0.8269,-60.003851 2.9699,-2.969871 56.7842,-2.704692 59.2713,0.292068 1.2773,1.538972 1.714,11.172883 1.4091,31.088229 l -0.4419,28.858194 -29.9771,0.438255 c -16.4873,0.241051 -30.477,-0.06169 -31.0883,-0.672895 z m 86.4205,-0.895841 c -2.4753,-2.47535 -2.7091,-53.357415 -0.2662,-57.9222 1.5575,-2.910085 3.6528,-3.123778 30.6277,-3.123778 26.975,0 29.0703,0.213693 30.6276,3.123778 2.443,4.564785 2.2093,55.44685 -0.2661,57.9222 -1.3605,1.360485 -10.4076,1.937967 -30.3615,1.937967 -19.954,0 -29.0011,-0.577482 -30.3615,-1.937967 z m 86.3817,0.895841 c -2.0562,-2.056216 -1.2869,-57.890175 0.8268,-60.003851 2.97,-2.969871 56.7842,-2.704692 59.2713,0.292068 1.2773,1.538972 1.714,11.172883 1.4091,31.088229 l -0.4419,28.858194 -29.9771,0.438255 c -16.4873,0.241051 -30.477,-0.06169 -31.0882,-0.672895 z m 85.4627,-1.512422 c -1.9288,-5.026183 -1.0869,-56.446938 0.9577,-58.491429 1.3574,-1.35732 10.2743,-1.937968 29.7617,-1.937968 23.1409,0 28.2507,0.427112 30.3615,2.537817 2.0954,2.095541 2.5377,7.039328 2.5377,28.368195 0,14.717152 -0.7193,27.174358 -1.6718,28.954156 -1.5596,2.914234 -3.6605,3.123777 -31.3192,3.123777 -25.5446,0 -29.783,-0.353501 -30.6276,-2.554548 z m 87.305,1.477894 c -0.5923,-0.592146 -1.0767,-14.32242 -1.0767,-30.5117 0,-25.351119 0.3544,-29.571059 2.5545,-30.415318 5.0261,-1.92873 56.4469,-1.086796 58.4914,0.957695 2.0446,2.044491 2.8865,53.465246 0.9577,58.491429 -0.8443,2.200126 -5.0642,2.554548 -30.4153,2.554548 -16.1893,0 -29.9196,-0.484492 -30.5116,-1.076654 z m -462.6851,-46.968791 c -1.506,-2.926024 -1.1344,-13.854675 0.5648,-16.603811 1.3817,-2.235866 15.9065,-1.938226 18.218,0.373333 2.0387,2.038661 2.6258,12.155207 0.9577,16.502133 -1.4692,3.8286 -17.7454,3.604603 -19.7405,-0.271655 z m 285.1251,-31.358976 c -16.471,-4.55389 -22.8939,-23.97347 -13.887,-41.98628 5.3707,-10.74085 16.676,-16.27192 38.974,-19.06784 7.2289,-0.90644 13.8196,-2.32408 14.6458,-3.15031 2.0075,-2.00738 0.2458,-8.50718 -3.5891,-13.24305 -2.6928,-3.32557 -4.5038,-3.83791 -13.5667,-3.83791 -9.3089,0 -11.2958,0.60095 -18.0683,5.46457 l -7.6093,5.46458 -5.8798,-5.87976 c -7.3171,-7.31713 -6.3339,-9.58465 7.0909,-16.3542 16.1925,-8.16517 41.0014,-7.6087 54.0924,1.21328 10.7242,7.22704 11.9466,11.49131 12.8472,44.81345 l 0.8075,29.877 4.8449,0.54665 c 6.5612,0.74029 9.1401,3.20984 8.5604,8.19746 -0.4054,3.48703 -1.9458,4.65978 -9.3399,7.11111 -10.556,3.499586 -17.3553,2.62035 -24.1863,-3.12759 l -4.8739,-4.10106 -8.4973,4.07012 c -9.8397,4.71317 -23.6095,6.41062 -32.3655,3.98978 z m 33.9619,-19.06544 6.8636,-3.11552 0,-14.00621 0,-14.00621 -8.4786,0.71981 c -11.8421,1.00534 -20.4788,5.47733 -23.212,12.01887 -3.0994,7.41788 -2.7789,12.35957 1.1234,17.32049 4.1636,5.29323 13.4723,5.71295 23.7036,1.06877 z m 154.6337,19.43581 c -20.7253,-5.06793 -32.9448,-21.22418 -34.3804,-45.45611 -1.3961,-23.5656 6.7835,-39.61688 24.6776,-48.42612 9.5916,-4.72193 11.2336,-5.02208 24.5261,-4.48364 17.8933,0.72482 27.681,5.03882 35.0417,15.44478 7.4428,10.52189 8.8244,15.70745 8.9429,33.56479 0.09,13.73496 -0.4643,17.37674 -3.7141,24.35581 -9.4421,20.27754 -32.1914,30.600785 -55.0938,25.00049 z m 23.9045,-19.51606 c 8.9151,-7.0126 13.5953,-31.49852 8.9708,-46.93355 -4.0828,-13.62727 -18.8564,-19.91982 -30.143,-12.83884 -7.9243,4.97155 -11.5438,14.35656 -11.5438,29.93215 0,14.73837 3.2459,23.94033 10.4413,29.6002 5.8703,4.61748 16.5631,4.73272 22.2747,0.24004 z m -469.6955,15.80907 c -0.432,-1.12589 -0.5956,-32.20624 -0.3636,-69.06743 l 0.422,-67.02036 12.1123,0 12.1123,0 0.8075,59.754 0.8075,59.75399 29.0695,0.80749 29.0695,0.80749 0,8.07486 0,8.07487 -41.6258,0.43108 c -32.4368,0.33593 -41.799,-0.0208 -42.4112,-1.61599 z m 94.5343,-45.64931 0,-47.6417 11.3048,0 11.3049,0 0,47.6417 0,47.6417 -11.3049,0 -11.3048,0 0,-47.6417 z m 44.681,46.56505 c -0.5922,-0.59215 -1.0767,-22.03091 -1.0767,-47.6417 l 0,-46.56505 10.3003,0 c 8.5093,0 10.6856,0.56493 12.516,3.24866 2.2024,3.22909 2.2636,3.22423 10.1606,-0.80748 14.4893,-7.39735 36.0362,-4.6394 45.676,5.84643 7.7191,8.39661 8.5556,13.43085 8.5556,51.48527 l 0,35.65203 -11.7085,-0.4745 -11.7086,-0.47449 -0.8074,-35.26891 -0.8075,-35.26891 -4.7586,-4.08971 c -4.225,-3.63122 -5.7904,-3.99614 -13.9637,-3.25501 -5.0627,0.45907 -11.2789,1.82816 -13.8136,3.04241 l -4.6085,2.20772 -0.4341,36.71995 -0.434,36.71994 -11.0054,0 c -6.0529,0 -11.4898,-0.48449 -12.0819,-1.07665 z m 206.7826,0.0662 c -0.6285,-0.62859 -1.1428,-22.09712 -1.1428,-47.70791 l 0,-46.56505 10.4783,0 10.4783,0 1.0386,6.49568 c 1.2204,7.63165 3.0342,9.34071 5.3402,5.03182 0.9118,-1.70373 5.0699,-5.35779 9.2402,-8.12008 6.0549,-4.01055 9.2814,-5.02239 16.0152,-5.02239 9.9247,0 10.8032,1.26379 8.1477,11.722 -2.4174,9.52061 -3.0117,10.04533 -10.7475,9.48679 -8.3594,-0.60356 -16.2752,2.10867 -21.0876,7.22542 -3.7489,3.98569 -3.8968,5.12102 -4.6788,35.88628 l -0.8074,31.7704 -10.5658,0.46989 c -5.8112,0.25843 -11.0801,-0.0444 -11.7086,-0.67291 z M 1396.084,-221.22136 c -5.9322,-7.54141 -3.8564,-16.41375 4.6659,-19.9438 3.943,-1.63321 5.8703,-1.63321 9.8133,0 13.0982,5.42547 9.2917,24.19903 -4.9067,24.19903 -4.8019,0 -6.9908,-0.97302 -9.5725,-4.25523 z"
         id="path4510"
         inkscape:connector-curvature="0" />
      <path
         style="fill:#c1c1c1;fill-opacity:1"
         d="m 1223.4876,49.181409 c -2.4307,-2.430744 -2.6473,-32.478333 -0.2661,-36.927551 1.3283,-2.4821654 3.4211,-3.123778 10.1887,-3.123778 13.5152,0 14.1749,-1.0557724 13.6337,-21.823259 l -0.4622,-17.743578 -20.5171,-0.807487 c -11.7177,-0.461171 -21.2787,-1.572208 -22.2932,-2.590578 -2.5315,-2.541273 -2.4344,-48.561348 0.1082,-51.625791 2.6002,-3.133209 50.6883,-3.396886 52.6998,-0.288968 0.7185,1.110294 1.6698,8.922726 2.114,17.36096 l 0.8075,15.342243 20.9946,0.448494 20.9946,0.44851 0,-15.443227 c 0,-11.968872 0.5451,-15.788347 2.4225,-16.977242 3.6989,-2.342292 57.0525,-2.024062 59.431,0.354487 2.3761,2.376061 2.698,55.72687 0.3585,59.431004 -1.2055,1.909043 -5.2221,2.42246 -18.951,2.42246 -9.7467,0 -17.9442,0.71146 -18.6079,1.614972 -0.6526,0.888236 -1.1977,10.735533 -1.2112,21.8828839 -0.016,13.5804851 -0.6641,20.9073431 -1.9627,22.2058781 -1.3425,1.342495 -9.7176,1.937967 -27.2569,1.937967 -28.9156,0 -29.7798,0.361512 -29.167,12.200314 0.6723,12.988339 -0.3833,13.639254 -22.1206,13.639254 -12.6244,0 -19.6502,-0.650302 -20.9378,-1.937968 z m 165.5153,-73.392914 c -2.0561,-2.056216 -1.2868,-57.890175 0.8269,-60.003851 2.9699,-2.969871 56.7842,-2.704692 59.2713,0.292068 1.2773,1.538972 1.714,11.172883 1.4091,31.088229 l -0.4419,28.858194 -29.9771,0.438255 c -16.4873,0.241051 -30.477,-0.06169 -31.0883,-0.672895 z m 86.4205,-0.895841 c -2.4753,-2.47535 -2.7091,-53.357415 -0.2662,-57.9222 1.5575,-2.910085 3.6528,-3.123778 30.6277,-3.123778 26.975,0 29.0703,0.213693 30.6276,3.123778 2.443,4.564785 2.2093,55.44685 -0.2661,57.9222 -1.3605,1.360485 -10.4076,1.937967 -30.3615,1.937967 -19.954,0 -29.0011,-0.577482 -30.3615,-1.937967 z m 86.3817,0.895841 c -2.0562,-2.056216 -1.2869,-57.890175 0.8268,-60.003851 2.97,-2.969871 56.7842,-2.704692 59.2713,0.292068 1.2773,1.538972 1.714,11.172883 1.4091,31.088229 l -0.4419,28.858194 -29.9771,0.438255 c -16.4873,0.241051 -30.477,-0.06169 -31.0882,-0.672895 z m 85.4627,-1.512422 c -1.9288,-5.026183 -1.0869,-56.446938 0.9577,-58.491429 1.3574,-1.35732 10.2743,-1.937968 29.7617,-1.937968 23.1409,0 28.2507,0.427112 30.3615,2.537817 2.0954,2.095541 2.5377,7.039328 2.5377,28.368195 0,14.717152 -0.7193,27.174358 -1.6718,28.954156 -1.5596,2.914234 -3.6605,3.123777 -31.3192,3.123777 -25.5446,0 -29.783,-0.353501 -30.6276,-2.554548 z m 87.305,1.477894 c -0.5923,-0.592146 -1.0767,-14.32242 -1.0767,-30.5117 0,-25.351119 0.3544,-29.571059 2.5545,-30.415318 5.0261,-1.92873 56.4469,-1.086796 58.4914,0.957695 2.0446,2.044491 2.8865,53.465246 0.9577,58.491429 -0.8443,2.200126 -5.0642,2.554548 -30.4153,2.554548 -16.1893,0 -29.9196,-0.484492 -30.5116,-1.076654 z M 1272.763,-69.392731 c -1.9055,-1.905458 -1.2908,-15.972987 0.7888,-18.052571 2.2049,-2.204874 12.3398,-2.563576 15.516,-0.549156 1.425,0.903723 1.9502,4.178646 1.6149,10.068856 l -0.4967,8.729494 -8.1369,0.476288 c -4.4752,0.261965 -8.654,-0.04086 -9.2861,-0.672911 z m 476.0753,-34.521289 c -10.2769,-2.14803 -14.7402,-4.31335 -21.5247,-10.44276 -16.3091,-14.73438 -19.326,-47.05331 -6.2225,-66.66012 14.2659,-21.34584 51.2887,-24.60511 69.7531,-6.14066 8.7377,8.73775 12.0957,19.07842 12.0957,37.24798 0,11.48971 -0.6378,14.45236 -4.9822,23.14653 -7.2012,14.41088 -17.7973,21.56277 -34.5846,23.34295 -4.4412,0.47096 -10.9819,0.24869 -14.5348,-0.49392 z m 17.9795,-13.94143 c 14.4892,-6.87559 20.847,-37.53984 11.6054,-55.97351 -5.8377,-11.64367 -20.5582,-15.97512 -31.5385,-9.28006 -19.041,11.60996 -16.675,56.83626 3.4316,65.59064 6.6125,2.8791 9.8638,2.81267 16.5015,-0.33707 z m -214.1987,11.21056 c -15.6415,-8.0956 -14.8998,-35.81471 1.2432,-46.46224 6.747,-4.45024 23.5335,-8.88981 33.7503,-8.92605 9.6655,-0.0342 11.8407,-1.27186 11.8407,-6.73675 0,-17.75288 -21.5066,-24.33212 -38.2479,-11.70072 -6.4796,4.88888 -7.0443,4.85753 -12.355,-0.68556 -4.1914,-4.37478 -4.2518,-4.67412 -1.4543,-7.20568 11.8327,-10.70852 40.5344,-13.77587 56.0924,-5.99462 4.5324,2.26687 9.667,6.44389 11.7085,9.52492 3.4091,5.14496 3.636,7.17976 3.636,32.59806 0,14.91082 0.6831,28.90742 1.5181,31.10356 1.0213,2.68605 3.2677,4.37265 6.8636,5.15296 5.051,1.09601 7.6876,3.16807 7.7433,6.08525 0.045,2.36965 -11.0795,5.97373 -18.4394,5.97373 -5.8023,0 -8.3976,-0.9961 -12.9038,-4.95271 l -5.641,-4.95271 -7.5501,4.42475 c -10.004,5.86265 -29.1091,7.25433 -37.8046,2.75381 z m 40.4386,-13.45568 6.3956,-3.26278 0,-15.21411 c 0,-9.03938 -0.6994,-15.64641 -1.7235,-16.27928 -0.948,-0.58587 -6.5802,-0.15569 -12.516,0.95575 -8.9111,1.66866 -11.8483,3.07147 -16.8487,8.04727 -5.2014,5.17571 -6.0562,7.04813 -6.0562,13.26587 0,4.8787 1.0916,8.62725 3.3472,11.49481 2.8868,3.66996 4.5615,4.25523 12.1766,4.25523 5.6721,0 11.1165,-1.16677 15.225,-3.26276 z m -290.7594,-53.23308 0,-67.85708 9.6898,0 9.6899,0 0,58.74878 c 0,46.75981 0.436,59.11066 2.1367,60.52211 1.3222,1.09726 12.8668,1.9423 30.2808,2.21647 l 28.1439,0.4431 0,6.45989 0,6.45989 -39.9705,0.43196 -39.9706,0.43196 0,-67.85708 z m 93.6684,21.77392 0,-46.02673 9.6898,0 9.6899,0 0,46.02673 0,46.02673 -9.6899,0 -9.6898,0 0,-46.02673 z m 45.2193,5.12738 c 0,-22.58328 -0.4542,-43.33158 -1.0094,-46.10732 l -1.0094,-5.04679 9.135,0 c 7.226,0 9.3528,0.59058 10.1775,2.82621 1.7967,4.8693 3.871,5.00581 11.9975,0.7896 15.4495,-8.01551 33.0083,-6.29516 43.5726,4.26906 8.5849,8.58497 9.6354,14.49451 9.1306,51.36229 l -0.4383,31.99881 -9.2861,0.48433 -9.2861,0.48435 0,-31.62445 c 0,-34.47739 -1.1274,-40.31526 -8.7507,-45.31026 -5.0266,-3.29349 -21.5727,-2.74247 -29.2012,0.97246 l -4.8449,2.35939 -0.8075,36.31709 -0.8075,36.31709 -9.2861,0.48433 -9.286,0.48435 0,-41.06054 z m 206.3935,1.4131 c -0.1777,-21.80607 -0.3593,-42.37269 -0.4037,-45.70357 l -0.081,-6.05615 8.3677,-0.48428 8.3675,-0.4843 1.1048,7.36778 c 0.6077,4.05229 1.8147,7.80652 2.6824,8.34274 0.8676,0.53624 3.6899,-1.58766 6.2716,-4.71976 5.5284,-6.70692 16.5159,-12.44464 23.8307,-12.44464 6.3089,0 7.4765,2.44878 5.1996,10.90483 l -1.7229,6.39846 -8.7221,0 c -6.1124,0 -10.4069,1.04127 -14.3531,3.48015 -9.995,6.17727 -9.9623,6.05512 -10.839,40.42449 l -0.8075,31.65301 -9.2861,0.48433 -9.2861,0.48435 -0.323,-39.64744 z m -249.8806,-77.81708 c -3.9998,-5.08494 -4.2057,-8.33507 -0.8331,-13.15013 3.7192,-5.30997 14.2172,-5.0528 17.8139,0.43638 7.5147,11.46878 -8.518,23.47257 -16.9808,12.71375 z"
         id="path4508"
         inkscape:connector-curvature="0" />
      <path
         style="fill:#c1c1c1;fill-opacity:1"
         d="m 1225.9908,50.006127 c -2.4912,-0.651011 -2.8262,-3.008581 -2.8262,-19.890992 0,-22.3426497 -2.1398,-20.279974 22.6747,-21.8575118 21.964,-1.3963218 21.426,-1.9996111 19.9675,22.3979628 -1.0205,17.068471 -1.3906,18.666939 -4.5159,19.505869 -3.942,1.058147 -31.1141,0.93859 -35.3001,-0.15536 z m 101.7433,-72.586622 c -2.3606,-0.689691 -2.8262,-2.782566 -2.8262,-12.704249 0,-14.848966 -1.7098,-16.954148 -13.7694,-16.954148 -8.6732,0 -8.6963,-0.01292 -9.7646,-5.707702 -1.6412,-8.748244 -0.028,-25.000298 2.6518,-26.695357 3.6212,-2.291679 56.9841,-1.907913 59.3186,0.426595 2.3539,2.353936 2.7088,55.711657 0.3948,59.370039 -1.1164,1.765117 -5.4946,2.453564 -17.3362,2.72601 -8.7135,0.200482 -17.1144,-0.0065 -18.6688,-0.461188 z m 61.2688,-1.63101 c -2.0561,-2.056216 -1.2868,-57.890175 0.8269,-60.003851 2.9699,-2.969871 56.7842,-2.704692 59.2713,0.292068 1.2773,1.538972 1.714,11.172883 1.4091,31.088229 l -0.4419,28.858194 -29.9771,0.438255 c -16.4873,0.241051 -30.477,-0.06169 -31.0883,-0.672895 z m 86.4205,-0.895841 c -2.4753,-2.47535 -2.7091,-53.357415 -0.2662,-57.9222 1.5575,-2.910085 3.6528,-3.123778 30.6277,-3.123778 26.975,0 29.0703,0.213693 30.6276,3.123778 2.443,4.564785 2.2093,55.44685 -0.2661,57.9222 -1.3605,1.360485 -10.4076,1.937967 -30.3615,1.937967 -19.954,0 -29.0011,-0.577482 -30.3615,-1.937967 z m 86.3817,0.895841 c -2.0562,-2.056216 -1.2869,-57.890175 0.8268,-60.003851 2.97,-2.969871 56.7842,-2.704692 59.2713,0.292068 1.2773,1.538972 1.714,11.172883 1.4091,31.088229 l -0.4419,28.858194 -29.9771,0.438255 c -16.4873,0.241051 -30.477,-0.06169 -31.0882,-0.672895 z m 85.4627,-1.512422 c -1.9288,-5.026183 -1.0869,-56.446938 0.9577,-58.491429 1.3574,-1.35732 10.2743,-1.937968 29.7617,-1.937968 23.1409,0 28.2507,0.427112 30.3615,2.537817 2.0954,2.095541 2.5377,7.039328 2.5377,28.368195 0,14.717152 -0.7193,27.174358 -1.6718,28.954156 -1.5596,2.914234 -3.6605,3.123777 -31.3192,3.123777 -25.5446,0 -29.783,-0.353501 -30.6276,-2.554548 z m 87.305,1.477894 c -0.5923,-0.592146 -1.0767,-14.32242 -1.0767,-30.5117 0,-25.351119 0.3544,-29.571059 2.5545,-30.415318 5.0261,-1.92873 56.4469,-1.086796 58.4914,0.957695 2.0446,2.044491 2.8865,53.465246 0.9577,58.491429 -0.8443,2.200126 -5.0642,2.554548 -30.4153,2.554548 -16.1893,0 -29.9196,-0.484492 -30.5116,-1.076654 z m -527.5579,-8.175348 c -1.3324,-0.507183 -2.9564,-1.721594 -3.609,-2.698701 -2.0853,-3.122292 -1.4564,-48.551884 0.702,-50.710247 2.7786,-2.778497 48.7207,-2.705742 50.9892,0.08075 0.9039,1.110294 2.1643,12.604977 2.8007,25.543753 1.5044,30.583566 2.9495,29.003299 -26.3699,28.834082 -12.1498,-0.07012 -23.1807,-0.542453 -24.513,-1.049635 z m 541.8234,-71.492639 c -10.2769,-2.14803 -14.7402,-4.31335 -21.5247,-10.44276 -16.3091,-14.73438 -19.326,-47.05331 -6.2225,-66.66012 14.2659,-21.34584 51.2887,-24.60511 69.7531,-6.14066 8.7377,8.73775 12.0957,19.07842 12.0957,37.24798 0,11.48971 -0.6378,14.45236 -4.9822,23.14653 -7.2012,14.41088 -17.7973,21.56277 -34.5846,23.34295 -4.4412,0.47096 -10.9819,0.24869 -14.5348,-0.49392 z m 17.9795,-13.94143 c 14.4892,-6.87559 20.847,-37.53984 11.6054,-55.97351 -5.8377,-11.64367 -20.5582,-15.97512 -31.5385,-9.28006 -19.041,11.60996 -16.675,56.83626 3.4316,65.59064 6.6125,2.8791 9.8638,2.81267 16.5015,-0.33707 z m -214.1987,11.21056 c -15.6415,-8.0956 -14.8998,-35.81471 1.2432,-46.46224 6.747,-4.45024 23.5335,-8.88981 33.7503,-8.92605 9.6655,-0.0342 11.8407,-1.27186 11.8407,-6.73675 0,-17.75288 -21.5066,-24.33212 -38.2479,-11.70072 -6.4796,4.88888 -7.0443,4.85753 -12.355,-0.68556 -4.1914,-4.37478 -4.2518,-4.67412 -1.4543,-7.20568 11.8327,-10.70852 40.5344,-13.77587 56.0924,-5.99462 4.5324,2.26687 9.667,6.44389 11.7085,9.52492 3.4091,5.14496 3.636,7.17976 3.636,32.59806 0,14.91082 0.6831,28.90742 1.5181,31.10356 1.0213,2.68605 3.2677,4.37265 6.8636,5.15296 5.051,1.09601 7.6876,3.16807 7.7433,6.08525 0.045,2.36965 -11.0795,5.97373 -18.4394,5.97373 -5.8023,0 -8.3976,-0.9961 -12.9038,-4.95271 l -5.641,-4.95271 -7.5501,4.42475 c -10.004,5.86265 -29.1091,7.25433 -37.8046,2.75381 z m 40.4386,-13.45568 6.3956,-3.26278 0,-15.21411 c 0,-9.03938 -0.6994,-15.64641 -1.7235,-16.27928 -0.948,-0.58587 -6.5802,-0.15569 -12.516,0.95575 -8.9111,1.66866 -11.8483,3.07147 -16.8487,8.04727 -5.2014,5.17571 -6.0562,7.04813 -6.0562,13.26587 0,4.8787 1.0916,8.62725 3.3472,11.49481 2.8868,3.66996 4.5615,4.25523 12.1766,4.25523 5.6721,0 11.1165,-1.16677 15.225,-3.26276 z m -290.7594,-53.23308 0,-67.85708 9.6898,0 9.6899,0 0,58.74878 c 0,46.75981 0.436,59.11066 2.1367,60.52211 1.3222,1.09726 12.8668,1.9423 30.2808,2.21647 l 28.1439,0.4431 0,6.45989 0,6.45989 -39.9705,0.43196 -39.9706,0.43196 0,-67.85708 z m 93.6684,21.77392 0,-46.02673 9.6898,0 9.6899,0 0,46.02673 0,46.02673 -9.6899,0 -9.6898,0 0,-46.02673 z m 45.2193,5.12738 c 0,-22.58328 -0.4542,-43.33158 -1.0094,-46.10732 l -1.0094,-5.04679 9.135,0 c 7.226,0 9.3528,0.59058 10.1775,2.82621 1.7967,4.8693 3.871,5.00581 11.9975,0.7896 15.4495,-8.01551 33.0083,-6.29516 43.5726,4.26906 8.5849,8.58497 9.6354,14.49451 9.1306,51.36229 l -0.4383,31.99881 -9.2861,0.48433 -9.2861,0.48435 0,-31.62445 c 0,-34.47739 -1.1274,-40.31526 -8.7507,-45.31026 -5.0266,-3.29349 -21.5727,-2.74247 -29.2012,0.97246 l -4.8449,2.35939 -0.8075,36.31709 -0.8075,36.31709 -9.2861,0.48433 -9.286,0.48435 0,-41.06054 z m 206.3935,1.4131 c -0.1777,-21.80607 -0.3593,-42.37269 -0.4037,-45.70357 l -0.081,-6.05615 8.3677,-0.48428 8.3675,-0.4843 1.1048,7.36778 c 0.6077,4.05229 1.8147,7.80652 2.6824,8.34274 0.8676,0.53624 3.6899,-1.58766 6.2716,-4.71976 5.5284,-6.70692 16.5159,-12.44464 23.8307,-12.44464 6.3089,0 7.4765,2.44878 5.1996,10.90483 l -1.7229,6.39846 -8.7221,0 c -6.1124,0 -10.4069,1.04127 -14.3531,3.48015 -9.995,6.17727 -9.9623,6.05512 -10.839,40.42449 l -0.8075,31.65301 -9.2861,0.48433 -9.2861,0.48435 -0.323,-39.64744 z m -249.8806,-77.81708 c -3.9998,-5.08494 -4.2057,-8.33507 -0.8331,-13.15013 3.7192,-5.30997 14.2172,-5.0528 17.8139,0.43638 7.5147,11.46878 -8.518,23.47257 -16.9808,12.71375 z"
         id="path4506"
         inkscape:connector-curvature="0" />
      <path
         style="fill:#c1c1c1;fill-opacity:1"
         d="m 1225.9908,50.006127 c -2.4912,-0.651011 -2.8262,-3.008581 -2.8262,-19.890992 0,-22.3426497 -2.1398,-20.279974 22.6747,-21.8575118 21.964,-1.3963218 21.426,-1.9996111 19.9675,22.3979628 -1.0205,17.068471 -1.3906,18.666939 -4.5159,19.505869 -3.942,1.058147 -31.1141,0.93859 -35.3001,-0.15536 z m 99.2173,-84.480317 c -0.1923,-6.661763 -1.0386,-13.202 -1.8804,-14.533852 -0.9661,-1.528281 -5.276,-2.777834 -11.6839,-3.387422 l -10.153,-0.965883 9.8433,-0.246251 c 13.7818,-0.344796 15.5061,1.817523 14.7778,18.532073 l -0.554,12.713633 -0.3498,-12.112298 z m -118.1932,2.052809 c -1.3324,-0.507183 -2.9564,-1.721594 -3.609,-2.698701 -2.0853,-3.122292 -1.4564,-48.551884 0.702,-50.710247 2.7786,-2.778497 48.7207,-2.705742 50.9892,0.08075 0.9039,1.110294 2.1643,12.604977 2.8007,25.543753 1.5044,30.583566 2.9495,29.003299 -26.3699,28.834082 -12.1498,-0.07012 -23.1807,-0.542453 -24.513,-1.049635 z m 541.8234,-71.492639 c -10.2769,-2.14803 -14.7402,-4.31335 -21.5247,-10.44276 -16.3091,-14.73438 -19.326,-47.05331 -6.2225,-66.66012 14.2659,-21.34584 51.2887,-24.60511 69.7531,-6.14066 8.7377,8.73775 12.0957,19.07842 12.0957,37.24798 0,11.48971 -0.6378,14.45236 -4.9822,23.14653 -7.2012,14.41088 -17.7973,21.56277 -34.5846,23.34295 -4.4412,0.47096 -10.9819,0.24869 -14.5348,-0.49392 z m 17.9795,-13.94143 c 14.4892,-6.87559 20.847,-37.53984 11.6054,-55.97351 -5.8377,-11.64367 -20.5582,-15.97512 -31.5385,-9.28006 -19.041,11.60996 -16.675,56.83626 3.4316,65.59064 6.6125,2.8791 9.8638,2.81267 16.5015,-0.33707 z m -214.1987,11.21056 c -15.6415,-8.0956 -14.8998,-35.81471 1.2432,-46.46224 6.747,-4.45024 23.5335,-8.88981 33.7503,-8.92605 9.6655,-0.0342 11.8407,-1.27186 11.8407,-6.73675 0,-17.75288 -21.5066,-24.33212 -38.2479,-11.70072 -6.4796,4.88888 -7.0443,4.85753 -12.355,-0.68556 -4.1914,-4.37478 -4.2518,-4.67412 -1.4543,-7.20568 11.8327,-10.70852 40.5344,-13.77587 56.0924,-5.99462 4.5324,2.26687 9.667,6.44389 11.7085,9.52492 3.4091,5.14496 3.636,7.17976 3.636,32.59806 0,14.91082 0.6831,28.90742 1.5181,31.10356 1.0213,2.68605 3.2677,4.37265 6.8636,5.15296 5.051,1.09601 7.6876,3.16807 7.7433,6.08525 0.045,2.36965 -11.0795,5.97373 -18.4394,5.97373 -5.8023,0 -8.3976,-0.9961 -12.9038,-4.95271 l -5.641,-4.95271 -7.5501,4.42475 c -10.004,5.86265 -29.1091,7.25433 -37.8046,2.75381 z m 40.4386,-13.45568 6.3956,-3.26278 0,-15.21411 c 0,-9.03938 -0.6994,-15.64641 -1.7235,-16.27928 -0.948,-0.58587 -6.5802,-0.15569 -12.516,0.95575 -8.9111,1.66866 -11.8483,3.07147 -16.8487,8.04727 -5.2014,5.17571 -6.0562,7.04813 -6.0562,13.26587 0,4.8787 1.0916,8.62725 3.3472,11.49481 2.8868,3.66996 4.5615,4.25523 12.1766,4.25523 5.6721,0 11.1165,-1.16677 15.225,-3.26276 z m -290.7594,-53.23308 0,-67.85708 9.6898,0 9.6899,0 0,58.74878 c 0,46.75981 0.436,59.11066 2.1367,60.52211 1.3222,1.09726 12.8668,1.9423 30.2808,2.21647 l 28.1439,0.4431 0,6.45989 0,6.45989 -39.9705,0.43196 -39.9706,0.43196 0,-67.85708 z m 93.6684,21.77392 0,-46.02673 9.6898,0 9.6899,0 0,46.02673 0,46.02673 -9.6899,0 -9.6898,0 0,-46.02673 z m 45.2193,5.12738 c 0,-22.58328 -0.4542,-43.33158 -1.0094,-46.10732 l -1.0094,-5.04679 9.135,0 c 7.226,0 9.3528,0.59058 10.1775,2.82621 1.7967,4.8693 3.871,5.00581 11.9975,0.7896 15.4495,-8.01551 33.0083,-6.29516 43.5726,4.26906 8.5849,8.58497 9.6354,14.49451 9.1306,51.36229 l -0.4383,31.99881 -9.2861,0.48433 -9.2861,0.48435 0,-31.62445 c 0,-34.47739 -1.1274,-40.31526 -8.7507,-45.31026 -5.0266,-3.29349 -21.5727,-2.74247 -29.2012,0.97246 l -4.8449,2.35939 -0.8075,36.31709 -0.8075,36.31709 -9.2861,0.48433 -9.286,0.48435 0,-41.06054 z m 206.3935,1.4131 c -0.1777,-21.80607 -0.3593,-42.37269 -0.4037,-45.70357 l -0.081,-6.05615 8.3677,-0.48428 8.3675,-0.4843 1.1048,7.36778 c 0.6077,4.05229 1.8147,7.80652 2.6824,8.34274 0.8676,0.53624 3.6899,-1.58766 6.2716,-4.71976 5.5284,-6.70692 16.5159,-12.44464 23.8307,-12.44464 6.3089,0 7.4765,2.44878 5.1996,10.90483 l -1.7229,6.39846 -8.7221,0 c -6.1124,0 -10.4069,1.04127 -14.3531,3.48015 -9.995,6.17727 -9.9623,6.05512 -10.839,40.42449 l -0.8075,31.65301 -9.2861,0.48433 -9.2861,0.48435 -0.323,-39.64744 z m -249.8806,-77.81708 c -3.9998,-5.08494 -4.2057,-8.33507 -0.8331,-13.15013 3.7192,-5.30997 14.2172,-5.0528 17.8139,0.43638 7.5147,11.46878 -8.518,23.47257 -16.9808,12.71375 z"
         id="path4504"
         inkscape:connector-curvature="0" />
      <path
         style="fill:#c1c1c1;fill-opacity:1"
         d="m 1325.2081,-34.47419 c -0.1923,-6.661763 -1.0386,-13.202 -1.8804,-14.533852 -0.9661,-1.528281 -5.276,-2.777834 -11.6839,-3.387422 l -10.153,-0.965883 9.8433,-0.246251 c 13.7818,-0.344796 15.5061,1.817523 14.7778,18.532073 l -0.554,12.713633 -0.3498,-12.112298 z m 423.6302,-69.43983 c -10.2769,-2.14803 -14.7402,-4.31335 -21.5247,-10.44276 -16.3091,-14.73438 -19.326,-47.05331 -6.2225,-66.66012 14.2659,-21.34584 51.2887,-24.60511 69.7531,-6.14066 8.7377,8.73775 12.0957,19.07842 12.0957,37.24798 0,11.48971 -0.6378,14.45236 -4.9822,23.14653 -7.2012,14.41088 -17.7973,21.56277 -34.5846,23.34295 -4.4412,0.47096 -10.9819,0.24869 -14.5348,-0.49392 z m 17.9795,-13.94143 c 14.4892,-6.87559 20.847,-37.53984 11.6054,-55.97351 -5.8377,-11.64367 -20.5582,-15.97512 -31.5385,-9.28006 -19.041,11.60996 -16.675,56.83626 3.4316,65.59064 6.6125,2.8791 9.8638,2.81267 16.5015,-0.33707 z m -214.1987,11.21056 c -15.6415,-8.0956 -14.8998,-35.81471 1.2432,-46.46224 6.747,-4.45024 23.5335,-8.88981 33.7503,-8.92605 9.6655,-0.0342 11.8407,-1.27186 11.8407,-6.73675 0,-17.75288 -21.5066,-24.33212 -38.2479,-11.70072 -6.4796,4.88888 -7.0443,4.85753 -12.355,-0.68556 -4.1914,-4.37478 -4.2518,-4.67412 -1.4543,-7.20568 11.8327,-10.70852 40.5344,-13.77587 56.0924,-5.99462 4.5324,2.26687 9.667,6.44389 11.7085,9.52492 3.4091,5.14496 3.636,7.17976 3.636,32.59806 0,14.91082 0.6831,28.90742 1.5181,31.10356 1.0213,2.68605 3.2677,4.37265 6.8636,5.15296 5.051,1.09601 7.6876,3.16807 7.7433,6.08525 0.045,2.36965 -11.0795,5.97373 -18.4394,5.97373 -5.8023,0 -8.3976,-0.9961 -12.9038,-4.95271 l -5.641,-4.95271 -7.5501,4.42475 c -10.004,5.86265 -29.1091,7.25433 -37.8046,2.75381 z m 40.4386,-13.45568 6.3956,-3.26278 0,-15.21411 c 0,-9.03938 -0.6994,-15.64641 -1.7235,-16.27928 -0.948,-0.58587 -6.5802,-0.15569 -12.516,0.95575 -8.9111,1.66866 -11.8483,3.07147 -16.8487,8.04727 -5.2014,5.17571 -6.0562,7.04813 -6.0562,13.26587 0,4.8787 1.0916,8.62725 3.3472,11.49481 2.8868,3.66996 4.5615,4.25523 12.1766,4.25523 5.6721,0 11.1165,-1.16677 15.225,-3.26276 z m -290.7594,-53.23308 0,-67.85708 9.6898,0 9.6899,0 0,58.74878 c 0,46.75981 0.436,59.11066 2.1367,60.52211 1.3222,1.09726 12.8668,1.9423 30.2808,2.21647 l 28.1439,0.4431 0,6.45989 0,6.45989 -39.9705,0.43196 -39.9706,0.43196 0,-67.85708 z m 93.6684,21.77392 0,-46.02673 9.6898,0 9.6899,0 0,46.02673 0,46.02673 -9.6899,0 -9.6898,0 0,-46.02673 z m 45.2193,5.12738 c 0,-22.58328 -0.4542,-43.33158 -1.0094,-46.10732 l -1.0094,-5.04679 9.135,0 c 7.226,0 9.3528,0.59058 10.1775,2.82621 1.7967,4.8693 3.871,5.00581 11.9975,0.7896 15.4495,-8.01551 33.0083,-6.29516 43.5726,4.26906 8.5849,8.58497 9.6354,14.49451 9.1306,51.36229 l -0.4383,31.99881 -9.2861,0.48433 -9.2861,0.48435 0,-31.62445 c 0,-34.47739 -1.1274,-40.31526 -8.7507,-45.31026 -5.0266,-3.29349 -21.5727,-2.74247 -29.2012,0.97246 l -4.8449,2.35939 -0.8075,36.31709 -0.8075,36.31709 -9.2861,0.48433 -9.286,0.48435 0,-41.06054 z m 206.3935,1.4131 c -0.1777,-21.80607 -0.3593,-42.37269 -0.4037,-45.70357 l -0.081,-6.05615 8.3677,-0.48428 8.3675,-0.4843 1.1048,7.36778 c 0.6077,4.05229 1.8147,7.80652 2.6824,8.34274 0.8676,0.53624 3.6899,-1.58766 6.2716,-4.71976 5.5284,-6.70692 16.5159,-12.44464 23.8307,-12.44464 6.3089,0 7.4765,2.44878 5.1996,10.90483 l -1.7229,6.39846 -8.7221,0 c -6.1124,0 -10.4069,1.04127 -14.3531,3.48015 -9.995,6.17727 -9.9623,6.05512 -10.839,40.42449 l -0.8075,31.65301 -9.2861,0.48433 -9.2861,0.48435 -0.323,-39.64744 z m -249.8806,-77.81708 c -3.9998,-5.08494 -4.2057,-8.33507 -0.8331,-13.15013 3.7192,-5.30997 14.2172,-5.0528 17.8139,0.43638 7.5147,11.46878 -8.518,23.47257 -16.9808,12.71375 z"
         id="path4502"
         inkscape:connector-curvature="0" />
    </g>
  </g>
</svg>
