<?xml version="1.0" encoding="UTF-8" standalone="no"?>
<!-- Created with Inkscape (http://www.inkscape.org/) -->

<svg
   xmlns:dc="http://purl.org/dc/elements/1.1/"
   xmlns:cc="http://creativecommons.org/ns#"
   xmlns:rdf="http://www.w3.org/1999/02/22-rdf-syntax-ns#"
   xmlns:svg="http://www.w3.org/2000/svg"
   xmlns="http://www.w3.org/2000/svg"
   xmlns:sodipodi="http://sodipodi.sourceforge.net/DTD/sodipodi-0.dtd"
   xmlns:inkscape="http://www.inkscape.org/namespaces/inkscape"
   width="798"
   height="454"
   id="svg3877"
   version="1.1"
   inkscape:version="0.48.4 r9939"
   sodipodi:docname="qualcomm.svg">
  <defs
     id="defs3879" />
  <sodipodi:namedview
     id="base"
     pagecolor="#ffffff"
     bordercolor="#666666"
     borderopacity="1.0"
     inkscape:pageopacity="0.0"
     inkscape:pageshadow="2"
     inkscape:zoom="0.49497475"
     inkscape:cx="2126.555"
     inkscape:cy="-526.26549"
     inkscape:document-units="px"
     inkscape:current-layer="layer1"
     showgrid="false"
     inkscape:window-width="3718"
     inkscape:window-height="2124"
     inkscape:window-x="122"
     inkscape:window-y="36"
     inkscape:window-maximized="1"
     fit-margin-top="0"
     fit-margin-left="0"
     fit-margin-right="0"
     fit-margin-bottom="0" />
  <metadata
     id="metadata3882">
    <rdf:RDF>
      <cc:Work
         rdf:about="">
        <dc:format>image/svg+xml</dc:format>
        <dc:type
           rdf:resource="http://purl.org/dc/dcmitype/StillImage" />
        <dc:title />
      </cc:Work>
    </rdf:RDF>
  </metadata>
  <g
     inkscape:label="Layer 1"
     inkscape:groupmode="layer"
     id="layer1"
     transform="translate(1892.7312,589.59426)">
    <g
       id="g3896"
       transform="matrix(0.91576212,0,0,0.91576212,-1477.4909,-425.18804)">
      <path
         id="path3888"
         d="m -197.07142,32.72857 c 2.1,0 3.9,1.7 3.9,3.9 v 74.5 c 0,2.1 -1.9,3.8 -3.9,3.8 h -10.1 c -1.9,0 -3.8,-1.5 -3.8,-3.6 v -6.9 c -5.1,7.5 -13.9,12.7 -26.7,12.7 -21.4,0 -34.6,-14.2 -34.6,-35.3 v -45.4 c 0,-2.1 1.9,-3.8 3.9,-3.8 h 10.1 c 2.1,0 3.8,1.7 3.8,3.8 v 42.5 c 0,13.7 7.2,22.8 21.4,22.8 13.9,0 22.1,-9.4 22.1,-22.6 v -42.7 c 0,-2.1 1.9,-3.8 3.8,-3.8 h 10.1 m -149,-41.2 c -34.6,0 -62.5,26.9 -62.5,62.8 0,36 27.9,62.8 62.5,62.8 5.9,0 11.6,-0.8 17,-2.3 l 6.8,17.5 c 0.7,1.9 2.1,3.1 4.6,3.1 h 10.8 c 2.6,0 4.5,-1.7 3.3,-5 l -8.8,-22.9 c 17.3,-10.9 28.8,-30.2 28.8,-53.3 0,-35.8 -27.9,-62.7 -62.5,-62.7 m 27.2,99.3 -7.9,-20.5 c -0.7,-1.7 -2.1,-3.3 -5.1,-3.3 h -10.3 c -2.6,0 -4.6,1.7 -3.4,5 l 10.4,26.9 c -3.4,0.9 -7.1,1.3 -10.9,1.3 -25.3,0 -43.3,-19.9 -43.3,-45.9 0,-26 18,-45.9 43.3,-45.9 25.3,0 43.3,19.9 43.3,45.9 0,15.2 -6.1,28.2 -16.1,36.5 m 693.6,20 c 0.9,2.1 -0.2,4.1 -2.7,4.1 h -11.3 c -2.1,0 -3.8,-1 -4.5,-3.1 l -20.9,-56.2 -21.2,56.2 c -0.9,2.2 -2.4,3.1 -4.5,3.1 h -10.1 c -2.1,0 -3.6,-0.9 -4.5,-3.1 l -21.4,-56.5 -21.1,56.5 c -0.9,2.1 -2.4,3.1 -4.5,3.1 h -10.6 c -2.1,0 -3.6,-1 -4.5,-3.1 l -20.9,-56.5 -21.6,56.5 c -0.9,2.2 -2.4,3.1 -4.5,3.1 h -10.1 c -2.1,0 -3.6,-0.9 -4.5,-3.1 l -21.10001,-56.5 -21.1,56.5 c -0.7,2.1 -2.4,3.1 -4.5,3.1 h -11 c -2.6,0 -3.6,-2.1 -2.7,-4.1 l 28.6,-74.8 c 0.9,-2.2 2.4,-3.3 4.5,-3.3 h 12.3 c 2.1,0 3.6,1 4.5,3.3 l 20.60001,54.6 20.4,-54.6 c 0.9,-2.2 2.4,-3.3 4.5,-3.3 h 12.1 c 2.1,0 3.6,1 4.5,3.3 l 20.2,54.6 20.2,-54.6 c 0.9,-2.2 2.4,-3.3 4.5,-3.3 h 12.2 c 2.1,0 3.6,1 4.5,3.3 l 20.5,54.6 20,-54.6 c 0.9,-2.2 2.4,-3.3 4.5,-3.3 h 12.3 c 2.1,0 3.6,1 4.5,3.3 l 28.4,74.8 m -473.900005,-78 h -10.099995 c -2.1,0 -3.9,1.7 -3.9,3.9 v 6.8 c -5.1,-7.7 -15.1,-13.2 -26.9,-13.2 -22.3,0 -41.4,17.6 -41.4,43.3 0,26 19.2,43.5 41.3,43.5 12,0 21.7,-5.5 27.1,-13.2 v 7.2 c 0,2.1 1.9,3.8 3.9,3.8 h 10.099995 c 2.1,0 3.8,-1.7 3.8,-3.8 v -74.4 c -0.1,-2.2 -1.8,-3.9 -3.9,-3.9 m -38.999995,67.9 c -14.7,0 -25.2,-12 -25.2,-26.9 0,-15.1 10.4,-26.7 25.2,-26.7 14.6,0 25.2,11.6 25.2,26.7 -0.1,15 -10.7,26.9 -25.2,26.9 m 159.499991,2.6 c 2.2,2.7 0.3,4.8 -0.9,5.7 -7,5.3 -16.2999996,8.2 -26.3999996,8.2 -25.5000004,0 -42.4999964,-18.7 -42.4999964,-43.3 0,-24.6 16.999996,-43.5 42.4999964,-43.5 10.1,0 19.2999996,2.9 26.3999996,8.2 1.2,0.9 2.9,2.7 0.9,5.7 l -4.8,6.7 c -1.9,2.6 -4.1,1.9 -6,0.7 -4.4999996,-2.7 -9.79999957,-5 -15.8999996,-5 -14.9000004,0 -24.8000004,12 -24.8000004,27.2 0,15.2 9.9,27.1 24.8000004,27.1 6.20000003,0 11.1,-2.4 15.5999996,-5 1.9,-1 3.9,-1.9 6,0.9 l 5.1,6.4 z m 47.6,-72.8 c -24,0 -43.1,18.8 -43.1,43.3 0,24.7 19.2,43.3 43.1,43.3 24,0 43.099999,-18.7 43.099999,-43.3 0.1,-24.4 -19.099999,-43.3 -43.099999,-43.3 m 0,70.1 c -14.7,0 -25.2,-11.8 -25.2,-26.7 0,-15.1 10.4,-26.7 25.2,-26.7 14.7,0 25.2,11.6 25.2,26.7 0,14.9 -10.4,26.7 -25.2,26.7 m -132.699995,-106.9 c 2.2,0 3.8,1.9 3.8,3.9 v 113.4 c 0,2.1 -1.5,3.9 -3.8,3.9 h -10.1 c -2.1,0 -3.9,-1.9 -3.9,-3.9 v -113.3 c 0,-2.1 1.9,-3.9 3.9,-3.9 h 10.1"
         inkscape:connector-curvature="0"
         style="fill:#c1c1c1;fill-opacity:1" />
    </g>
  </g>
</svg>
