<?xml version="1.0" encoding="UTF-8" standalone="no"?>
<!-- Created with Inkscape (http://www.inkscape.org/) -->

<svg
   xmlns:dc="http://purl.org/dc/elements/1.1/"
   xmlns:cc="http://creativecommons.org/ns#"
   xmlns:rdf="http://www.w3.org/1999/02/22-rdf-syntax-ns#"
   xmlns:svg="http://www.w3.org/2000/svg"
   xmlns="http://www.w3.org/2000/svg"
   xmlns:sodipodi="http://sodipodi.sourceforge.net/DTD/sodipodi-0.dtd"
   xmlns:inkscape="http://www.inkscape.org/namespaces/inkscape"
   width="798"
   height="454"
   id="svg3877"
   version="1.1"
   inkscape:version="0.48.4 r9939"
   sodipodi:docname="sharp.svg">
  <defs
     id="defs3879" />
  <sodipodi:namedview
     id="base"
     pagecolor="#ffffff"
     bordercolor="#666666"
     borderopacity="1.0"
     inkscape:pageopacity="0.0"
     inkscape:pageshadow="2"
     inkscape:zoom="0.49497475"
     inkscape:cx="1178.1609"
     inkscape:cy="188.95863"
     inkscape:document-units="px"
     inkscape:current-layer="layer1"
     showgrid="false"
     inkscape:window-width="3718"
     inkscape:window-height="2124"
     inkscape:window-x="122"
     inkscape:window-y="36"
     inkscape:window-maximized="1"
     fit-margin-top="0"
     fit-margin-left="0"
     fit-margin-right="0"
     fit-margin-bottom="0" />
  <metadata
     id="metadata3882">
    <rdf:RDF>
      <cc:Work
         rdf:about="">
        <dc:format>image/svg+xml</dc:format>
        <dc:type
           rdf:resource="http://purl.org/dc/dcmitype/StillImage" />
        <dc:title />
      </cc:Work>
    </rdf:RDF>
  </metadata>
  <g
     inkscape:label="Layer 1"
     inkscape:groupmode="layer"
     id="layer1"
     transform="translate(944.33717,601.67995)">
    <g
       transform="translate(-1127.3663,-947.22669)"
       id="layer1-6"
       inkscape:label="Ebene 1">
      <g
         transform="translate(1.778232,1.779163)"
         style="fill:#c1c1c1;fill-opacity:1"
         id="g21883">
        <path
           id="path21209"
           class="ps05"
           d="m 233.7788,601.91512 12.14632,-23.54129 c 0,0 34.81108,16.3537 59.6046,18.63267 21.41258,1.96597 26.04575,-0.2379 27.4231,-5.39693 1.00179,-3.28079 -1.12697,-7.09997 -6.76186,-9.30384 -5.63484,-2.21638 -23.29086,-4.67072 -34.81108,-5.39699 -11.52022,-0.73881 -42.19905,-6.86202 -49.58704,-17.16759 -7.38797,-10.29307 -13.39849,-19.84739 7.88884,-35.53741 11.77067,-8.71527 51.46537,-8.48988 58.85331,-8.33961 12.27154,0.2379 50.46358,5.88533 58.35243,9.80469 l -10.1428,22.31417 c 0,0 -31.93102,-10.81899 -47.95919,-12.99784 -18.15687,-2.45428 -30.67885,-1.22713 -32.18146,2.45434 -1.87833,4.60808 -0.25044,6.01055 6.13577,9.06591 9.76712,4.65815 92.91307,5.63489 87.77906,41.67312 -5.13405,36.2887 -74.7562,26.79704 -83.89727,26.23357 -23.5413,-1.46509 -52.84273,-12.49697 -52.84273,-12.49697"
           style="font-size:7.48759985px;letter-spacing:-0.074876;word-spacing:0.22463;fill:#c1c1c1;fill-opacity:1;fill-rule:nonzero;stroke:none"
           inkscape:connector-curvature="0" />
        <path
           id="path21213"
           class="ps05 ps14 ps25"
           d="m 376.65454,520.27184 32.55718,0 0,34.81113 59.85503,0 0,-34.81113 32.55712,0 0,93.41394 -32.55712,0 0,-38.25461 -59.85503,0 0,38.25461 -32.55718,0 0,-93.41394"
           style="font-size:7.48759985px;letter-spacing:-0.074876;word-spacing:0.22463;fill:#c1c1c1;fill-opacity:1;fill-rule:nonzero;stroke:none"
           inkscape:connector-curvature="0" />
        <path
           id="path21217"
           class="ps05 ps17 ps25"
           d="m 503.87783,613.68578 57.85155,-93.41394 36.6894,0 56.34889,93.41394 -38.19205,0 -12.52195,-21.08698 -61.73336,0 -13.02286,21.08698 -25.41962,0 z m 87.65386,-40.94685 -17.53077,-29.91499 -18.65778,29.91499 36.18855,0"
           style="font-size:7.48759985px;letter-spacing:-0.074876;word-spacing:0.22463;fill:#c1c1c1;fill-opacity:1;fill-rule:nonzero;stroke:none"
           inkscape:connector-curvature="0" />
        <path
           id="path21221"
           class="ps05 ps17 ps25"
           d="m 794.13728,613.68578 0,-93.41394 c 0,0 27.42314,-2.69222 59.35419,-2.69222 31.80583,0 69.87259,6.62412 69.87259,31.14218 0,24.50551 -36.56415,35.7878 -65.23949,35.28692 -28.67531,-0.47584 -30.17797,-2.69224 -30.17797,-2.69224 l -1.25217,0.67618 0,31.69312 -32.55715,0 z m 32.55715,-51.06461 c 0,0 8.38973,2.75487 27.79877,3.00528 19.28388,0.25044 32.30671,-4.65818 32.05627,-15.69006 -0.25044,-11.03182 -17.15512,-15.92796 -34.05979,-15.92796 -13.02286,0 -25.79525,2.62965 -25.79525,2.62965 l 0,25.98309"
           style="font-size:7.48759985px;letter-spacing:-0.074876;word-spacing:0.22463;fill:#c1c1c1;fill-opacity:1;fill-rule:nonzero;stroke:none"
           inkscape:connector-curvature="0" />
        <path
           id="path21231"
           class="ps018 ps17 ps25"
           d="m 790.38069,613.68578 -41.32251,-36.48902 c 20.4108,-4.35765 38.31723,-13.38598 38.44245,-27.98664 0.25044,-24.51801 -37.19028,-31.6305 -69.12133,-31.6305 -31.93102,0 -59.35416,2.69222 -59.35416,2.69222 l 0,93.41394 32.68237,0 0,-77.0477 c 0,0 12.64717,-2.62965 25.67006,-2.62965 16.90464,0 32.93278,3.91943 32.93278,14.95128 0,11.52019 -14.27503,15.69005 -33.6841,15.45212 -7.13753,-0.10017 -12.39676,-0.66368 -16.15336,-1.33987 l -5.13404,9.52925 47.95919,41.08457 47.08265,0"
           style="font-size:7.48759985px;letter-spacing:-0.074876;word-spacing:0.22463;fill:#c1c1c1;fill-opacity:1;fill-rule:evenodd;stroke:none"
           inkscape:connector-curvature="0" />
      </g>
    </g>
  </g>
</svg>
