<?xml version="1.0" encoding="UTF-8" standalone="no"?>
<!-- Created with Inkscape (http://www.inkscape.org/) -->

<svg
   xmlns:dc="http://purl.org/dc/elements/1.1/"
   xmlns:cc="http://creativecommons.org/ns#"
   xmlns:rdf="http://www.w3.org/1999/02/22-rdf-syntax-ns#"
   xmlns:svg="http://www.w3.org/2000/svg"
   xmlns="http://www.w3.org/2000/svg"
   xmlns:sodipodi="http://sodipodi.sourceforge.net/DTD/sodipodi-0.dtd"
   xmlns:inkscape="http://www.inkscape.org/namespaces/inkscape"
   width="798"
   height="454"
   id="svg3877"
   version="1.1"
   inkscape:version="0.48.4 r9939"
   sodipodi:docname="ti.svg">
  <defs
     id="defs3879" />
  <sodipodi:namedview
     id="base"
     pagecolor="#ffffff"
     bordercolor="#666666"
     borderopacity="1.0"
     inkscape:pageopacity="0.0"
     inkscape:pageshadow="2"
     inkscape:zoom="0.49497475"
     inkscape:cx="338.08784"
     inkscape:cy="-478.28366"
     inkscape:document-units="px"
     inkscape:current-layer="layer1"
     showgrid="false"
     inkscape:window-width="3718"
     inkscape:window-height="2124"
     inkscape:window-x="122"
     inkscape:window-y="36"
     inkscape:window-maximized="1"
     fit-margin-top="0"
     fit-margin-left="0"
     fit-margin-right="0"
     fit-margin-bottom="0" />
  <metadata
     id="metadata3882">
    <rdf:RDF>
      <cc:Work
         rdf:about="">
        <dc:format>image/svg+xml</dc:format>
        <dc:type
           rdf:resource="http://purl.org/dc/dcmitype/StillImage" />
        <dc:title />
      </cc:Work>
    </rdf:RDF>
  </metadata>
  <g
     inkscape:label="Layer 1"
     inkscape:groupmode="layer"
     id="layer1"
     transform="translate(104.26406,541.61241)">
    <g
       id="layer1-2"
       transform="translate(-1397.7193,302.77499)">
      <g
         id="g7585"
         transform="translate(17.716541,17.775636)">
        <path
           id="path10"
           style="fill:#c1c1c1;fill-opacity:1;fill-rule:evenodd;stroke:none"
           d="m 1444.1078,-737.79339 c 11.9745,0 26.2367,1.21096 30.5422,3.36372 0,3.22914 0,14.12748 0,15.20385 0,15.33843 8.7456,17.4912 8.7456,17.4912 0,0 0,6.59281 0,14.12748 0,9.82198 -2.1527,16.4148 -2.1527,16.4148 -4.4402,1.07636 -15.3385,4.30553 -27.3134,13.05111 -8.7455,6.59282 -16.4146,16.4148 -16.4146,26.23675 0,6.4583 1.0762,10.89835 3.3636,15.20388 0,0 -4.4401,2.15277 -12.1091,2.15277 -9.6875,-1.07636 -20.5858,-8.74558 -27.1787,-20.72033 -8.7456,-15.20385 -13.051,-33.77141 -22.8732,-33.77141 -9.8217,0 -9.8217,9.82194 -17.4911,9.82194 -8.7456,0 -14.1276,-14.12748 -16.2803,-20.72029 -5.5163,-9.82199 -18.5674,-13.05112 -19.6439,-28.38955 l 41.4405,0 c 0,-22.87306 0,-35.92418 0,-58.79724 15.2041,0 23.9497,0 39.1535,0 l 0,25.02583 c 1.2108,1.07636 4.4401,2.15276 8.7456,3.22913 l -4.3055,19.64393 -11.9749,0 -4.4401,17.4912 11.9749,0 -4.3055,21.7967 c 0,3.22913 -1.0765,10.89835 0,14.12748 2.1528,8.74558 7.669,11.97475 15.2038,11.97475 10.8983,0 20.7204,-5.38194 20.7204,-5.38194 l 4.4402,-14.12748 c -2.1528,0 -5.5167,0 -7.6694,0 -2.1528,0 -4.3055,0 -3.2293,-5.51645 l 5.382,-22.87306 11.9749,0 4.4401,-17.4912 -11.9749,0 3.2293,-18.56757"
           inkscape:connector-curvature="0" />
        <path
           id="path14"
           style="fill:#c1c1c1;fill-opacity:1;fill-rule:evenodd;stroke:none"
           d="m 1420.1581,-731.20053 15.2041,0 -11.9749,56.77906 -15.2037,0 11.9745,-56.77906"
           inkscape:connector-curvature="0" />
        <path
           id="path18"
           style="fill:#c1c1c1;fill-opacity:1;fill-rule:evenodd;stroke:none"
           d="m 1431.0564,-751.92087 c 4.3058,0 8.7459,3.22913 8.7459,8.74558 0,4.30554 -4.4401,7.66922 -8.7459,7.66922 -4.4398,0 -8.7456,-3.36368 -8.7456,-7.66922 0,-5.51645 4.3058,-8.74558 8.7456,-8.74558"
           inkscape:connector-curvature="0" />
        <path
           id="path22"
           style="fill:#c1c1c1;fill-opacity:1;fill-rule:evenodd;stroke:none"
           d="m 1810.4807,-682.09069 c 8.7456,0 14.1272,1.07636 15.2038,2.15277 2.1527,0 1.0761,-1.07641 2.1527,-2.15277 l 1.2108,0 5.3821,15.20388 -2.1528,1.07637 c -3.2293,-4.30554 -9.8221,-8.61103 -20.7204,-8.61103 -4.3055,0 -13.0511,1.07636 -13.0511,7.53466 0,13.05112 40.3644,5.51645 40.3644,31.61865 0,11.97475 -9.8222,20.72033 -28.3895,20.72033 -6.5928,0 -11.9749,-1.07636 -17.4912,-3.22913 -1.0765,0 -2.1527,1.07636 -2.1527,2.15277 l -2.1531,1.07636 -6.5929,-19.64393 2.1532,-1.0764 c 5.5163,6.59285 13.1853,11.97475 26.2367,11.97475 10.8983,0 14.1272,-4.30554 14.1272,-8.61107 0,-15.3384 -39.2878,-5.51641 -39.2878,-31.75319 0,-11.97472 12.1092,-18.43302 25.1606,-18.43302"
           inkscape:connector-curvature="0" />
        <path
           id="path26"
           style="fill:#c1c1c1;fill-opacity:1;fill-rule:evenodd;stroke:none"
           d="m 1583.6335,-615.62419 0,-2.15277 c 4.4401,-1.07641 6.5928,-2.15277 6.5928,-8.74558 l 0,-44.6698 c 0,-6.59282 -2.1527,-7.66922 -6.5928,-8.74558 l 0,-2.15277 51.2626,0 5.5163,14.12748 -2.1527,1.0764 c -4.4401,-5.3819 -8.7456,-6.4583 -16.4146,-6.4583 -1.0766,0 -11.9749,0 -11.9749,0 -4.4401,0 -5.5163,1.0764 -5.5163,4.30554 l 0,14.12748 17.4912,0 c 6.5929,0 7.669,-1.07637 8.7456,-4.30554 l 2.1527,0 0,17.4912 -2.1527,0 c -1.0766,-3.36368 -2.1527,-4.44008 -8.7456,-4.44008 l -17.4912,0 0,17.4912 c 0,4.3055 1.0762,4.3055 5.5163,4.3055 0,0 14.1276,0 15.2038,0 6.5928,0 11.9749,0 17.4912,-6.45827 l 1.0765,1.07637 -4.3054,14.12752 -55.7028,0"
           inkscape:connector-curvature="0" />
        <path
           id="path30"
           style="fill:#c1c1c1;fill-opacity:1;fill-rule:evenodd;stroke:none"
           d="m 1567.3532,-626.52254 c 0,6.59281 2.1527,7.66917 5.382,8.74558 l 0,2.15277 -28.2552,0 0,-2.15277 c 3.2293,-1.07641 6.4586,-2.15277 6.4586,-8.74558 l 0,-63.23737 c 0,-3.22913 -2.1528,-3.22913 -6.4586,-3.22913 -14.2619,0 -19.6439,0 -25.1602,5.3819 l -1.0766,0 5.5167,-15.20388 70.7719,0 5.5163,15.20388 -2.1527,0 c -4.4402,-5.3819 -10.8984,-5.3819 -25.1602,-5.3819 -4.3055,0 -5.382,0 -5.382,3.22913 l 0,63.23737"
           inkscape:connector-curvature="0" />
        <path
           id="path34"
           style="fill:#c1c1c1;fill-opacity:1;fill-rule:evenodd;stroke:none"
           d="m 1672.0312,-648.31928 -18.5677,-23.94943 c -3.2289,-5.51645 -5.5163,-6.59285 -9.8218,-7.66921 l 0,-2.15277 30.5422,0 0,2.15277 c -3.2293,0 -5.5163,3.22913 -2.1527,7.66921 l 8.6109,13.05108 11.033,-14.12748 c 2.1527,-3.36368 2.1527,-6.59281 -2.2874,-6.59281 l 0,-2.15277 25.1606,0 0,2.15277 c -4.4402,1.07636 -7.6695,2.15276 -11.9749,6.59281 l -15.3384,21.7967 18.5677,26.10223 c 2.1527,3.22913 4.3054,5.51645 4.3054,5.51645 0,0 3.3636,-1.0764 7.6691,-11.97475 l 20.7204,-50.18621 13.051,0 24.0841,56.64451 c 1.0765,3.22913 4.3054,6.59281 7.5347,7.66922 l 0,2.15277 -28.2548,0 0,-2.15277 c 2.1527,0 6.4582,-1.07641 3.2289,-7.66922 l -3.2289,-8.74558 -27.3133,0 -3.2293,8.74558 c -3.3636,6.59281 2.1527,7.66922 3.2293,7.66922 l 0,2.15277 -42.5171,0 0,-2.15277 c 2.1528,0 7.6694,-2.15277 3.2293,-7.66922 l -10.8983,-14.12748 -10.8983,15.20385 c -3.2293,4.44008 0,6.59285 2.1527,6.59285 l 0,2.15277 -25.0259,0 0,-2.15277 c 4.3055,-1.07641 8.7456,-3.22917 11.9745,-8.74558 l 16.415,-21.79674 z m 69.6957,-20.72029 -10.8983,26.23674 20.72,0 -9.8217,-26.23674"
           inkscape:connector-curvature="0" />
        <path
           id="path38"
           style="fill:#c1c1c1;fill-opacity:1;fill-rule:evenodd;stroke:none"
           d="m 1330.6842,-605.80225 c 0,-6.59281 -3.2293,-7.66922 -6.4582,-8.74558 l 0,-1.07636 28.2548,0 0,1.07636 c -2.1527,1.07636 -5.382,2.15277 -5.382,8.74558 l 0,66.4665 c 0,6.59281 3.2293,7.66918 5.382,8.74558 l 0,2.15277 -28.2548,0 0,-2.15277 c 3.2289,-1.0764 6.4582,-2.15277 6.4582,-8.74558 l 0,-66.4665"
           inkscape:connector-curvature="0" />
        <path
           id="path42"
           style="fill:#c1c1c1;fill-opacity:1;fill-rule:evenodd;stroke:none"
           d="m 1421.2346,-528.4374 -2.1527,0 -44.8045,-46.82257 0,35.92422 c 0,6.59281 3.364,7.66918 5.5167,8.74558 l 0,2.15277 -19.6443,0 0,-2.15277 c 3.2293,-1.0764 5.382,-2.15277 5.382,-8.74558 l 0,-44.6698 c 0,-6.59282 -2.1527,-7.66922 -5.382,-8.74558 l 0,-2.15277 18.5677,0 33.7715,37.13513 0,-26.23678 c 0,-6.59282 -2.1527,-7.66922 -5.382,-8.74558 l 0,-2.15277 20.5858,0 0,2.15277 c -3.2289,1.07636 -6.4582,2.15276 -6.4582,8.74558 l 0,55.56815"
           inkscape:connector-curvature="0" />
        <path
           id="path46"
           style="fill:#c1c1c1;fill-opacity:1;fill-rule:evenodd;stroke:none"
           d="m 1679.5659,-551.3105 c 0,19.64393 -17.3569,23.94946 -28.2552,23.94946 -11.9744,0 -29.4656,-4.30553 -29.4656,-22.87306 l 0,-33.77145 c 0,-6.59282 -3.2293,-8.74558 -6.5929,-8.74558 l 0,-2.15277 27.313,0 0,2.15277 c -3.2289,0 -6.5929,2.15276 -6.5929,8.74558 l 0,32.69505 c 0,10.89834 6.5929,15.33843 17.4912,15.33843 9.8221,0 17.4911,-4.44009 17.4911,-15.33843 l 0,-32.69505 c 0,-6.59282 -3.3635,-7.66922 -6.5928,-8.74558 l 0,-2.15277 20.7204,0 0,2.15277 c -3.2289,1.07636 -5.5163,2.15276 -5.5163,8.74558 l 0,32.69505"
           inkscape:connector-curvature="0" />
        <path
           id="path50"
           style="fill:#c1c1c1;fill-opacity:1;fill-rule:evenodd;stroke:none"
           d="m 1509.4977,-581.85278 c 0,-4.30554 0,-4.30554 -3.2289,-4.30554 -10.8984,0 -13.0515,0 -19.6439,7.66922 l -1.0766,-1.07637 4.3055,-15.33843 54.6262,0 5.382,15.33843 -2.1527,1.07637 c -5.5163,-7.66922 -7.6691,-7.66922 -18.5678,-7.66922 -3.2289,0 -4.3054,0 -4.3054,4.30554 l 0,42.51703 c 0,6.59281 2.1527,7.66918 6.4582,8.74558 l 0,2.15277 -27.1783,0 0,-2.15277 c 4.3055,-1.0764 5.3817,-2.15277 5.3817,-8.74558 l 0,-42.51703"
           inkscape:connector-curvature="0" />
        <path
           id="path54"
           style="fill:#c1c1c1;fill-opacity:1;fill-rule:evenodd;stroke:none"
           d="m 1459.4462,-595.98026 c 7.5344,0 13.0511,2.15276 14.1272,2.15276 2.1528,1.07637 2.1528,-1.0764 2.1528,-1.0764 l 2.1531,-1.07636 4.4397,16.41479 -2.287,0 c -3.2293,-3.36368 -8.6113,-7.66921 -19.5096,-7.66921 -5.5163,0 -14.2619,1.07636 -14.2619,7.66921 0,11.97472 41.4405,5.3819 41.4405,31.4841 0,12.1093 -9.8217,19.64397 -28.2548,19.64397 -7.6694,0 -13.1857,-1.07641 -18.5677,-2.15277 -1.0762,0 -1.0762,1.07636 -2.2874,1.07636 0,1.07641 -2.1527,1.07641 -2.1527,1.07641 l -6.4582,-18.43302 2.1527,-1.21095 c 5.382,6.59285 13.0511,12.1093 26.1021,12.1093 10.8987,0 14.2623,-4.44009 14.2623,-8.74558 0,-15.33844 -39.2878,-5.51645 -39.2878,-31.61868 0,-11.97476 13.051,-19.64393 26.2367,-19.64393"
           inkscape:connector-curvature="0" />
        <path
           id="path58"
           style="fill:#c1c1c1;fill-opacity:1;fill-rule:evenodd;stroke:none"
           d="m 1767.9636,-539.33575 c 0,6.59281 3.2289,7.66918 6.4582,8.74558 l 0,2.15277 -27.1786,0 0,-2.15277 c 3.2293,-1.0764 6.4582,-2.15277 6.4582,-8.74558 l 0,-31.61869 -23.9494,43.5934 -2.1527,0 -23.9493,-44.66976 0,32.69505 c 0,6.59281 3.2288,7.66918 6.4581,8.74558 l 0,2.15277 -20.7204,0 0,-2.15277 c 2.2874,-1.0764 5.5167,-2.15277 5.5167,-8.74558 l 0,-44.6698 c 0,-6.59282 -3.2293,-7.66922 -5.5167,-8.74558 l 0,-2.15277 20.7204,0 21.7967,43.5934 24.084,-43.5934 18.433,0 0,2.15277 c -3.2293,1.07636 -6.4582,2.15276 -6.4582,8.74558 l 0,44.6698"
           inkscape:connector-curvature="0" />
        <path
           id="path62"
           style="fill:#c1c1c1;fill-opacity:1;fill-rule:evenodd;stroke:none"
           d="m 1905.3366,-528.4374 -2.1527,0 -44.8045,-46.82257 0,35.92422 c 0,6.59281 3.364,7.66918 5.5167,8.74558 l 0,2.15277 -20.7205,0 0,-2.15277 c 3.2293,-1.0764 6.5929,-2.15277 6.5929,-8.74558 l 0,-44.6698 c 0,-6.59282 -2.2874,-7.66922 -6.5929,-8.74558 l 0,-2.15277 19.6439,0 33.7715,37.13513 0,-26.23678 c 0,-6.59282 -3.2293,-7.66922 -6.5928,-8.74558 l 0,-2.15277 20.8547,0 0,2.15277 c -2.287,1.07636 -5.5163,2.15276 -5.5163,8.74558 l 0,55.56815"
           inkscape:connector-curvature="0" />
        <path
           id="path66"
           style="fill:#c1c1c1;fill-opacity:1;fill-rule:evenodd;stroke:none"
           d="m 1782.0908,-528.4374 0,-2.15277 c 3.2293,-1.0764 5.5167,-3.22913 5.5167,-8.74558 l 0,-44.6698 c 0,-6.59282 -2.2874,-7.66922 -5.5167,-8.74558 l 0,-2.15277 51.2627,0 4.4401,14.12748 -1.2108,1.21095 c -4.3055,-5.51645 -9.8222,-6.59285 -16.2803,-6.59285 -1.0762,0 -13.0511,0 -13.0511,0 -3.3635,0 -4.4401,1.0764 -4.4401,4.30554 l 0,14.26203 16.415,0 c 6.4582,0 8.6109,-2.28732 8.6109,-4.44005 l 2.2874,0 0,17.49116 -2.2874,0 c 0,-3.22913 -2.1527,-4.30553 -8.6109,-4.30553 l -16.415,0 0,17.35665 c 0,3.36368 1.0766,4.44005 4.4401,4.44005 0,0 14.1276,0 15.2038,0 6.5928,0 13.051,0 17.4911,-6.59282 l 2.1528,1.07637 -5.5163,14.12752 -54.492,0"
           inkscape:connector-curvature="0" />
        <path
           id="path70"
           style="fill:#c1c1c1;fill-opacity:1;fill-rule:evenodd;stroke:none"
           d="m 1935.8788,-581.85278 c 0,-4.30554 -1.0762,-4.30554 -3.3636,-4.30554 -11.9748,0 -13.051,0 -19.5096,7.66922 l -1.2108,-1.07637 4.4401,-15.33843 54.4919,0 5.5163,15.33843 -2.1527,1.07637 c -5.5167,-7.66922 -7.6694,-7.66922 -18.5677,-7.66922 -3.3636,0 -4.4401,0 -4.4401,4.30554 l 0,42.51703 c 0,6.59281 2.1527,7.66918 6.5928,8.74558 l 0,2.15277 -27.3129,0 0,-2.15277 c 3.3636,-1.0764 5.5163,-2.15277 5.5163,-8.74558 l 0,-42.51703"
           inkscape:connector-curvature="0" />
        <path
           id="path74"
           style="fill:#c1c1c1;fill-opacity:1;fill-rule:evenodd;stroke:none"
           d="m 2004.4979,-595.98026 c 7.6695,0 13.1858,2.15276 15.3385,2.15276 1.0765,1.07637 1.0765,-1.0764 1.0765,-1.0764 1.0762,0 2.1528,-1.07636 2.1528,-1.07636 l 4.3054,16.41479 -1.0761,0 c -3.2293,-3.36368 -9.8222,-7.66921 -20.5858,-7.66921 -5.5167,0 -13.1857,1.07636 -13.1857,7.66921 0,11.97472 40.3639,5.3819 40.3639,31.4841 0,12.1093 -9.8217,19.64397 -28.3895,19.64397 -7.5343,0 -13.051,-1.07641 -18.433,-2.15277 -1.0762,0 -1.0762,1.07636 -1.0762,1.07636 -1.2108,1.07641 -2.2874,1.07641 -2.2874,1.07641 l -7.5347,-18.43302 2.1527,-1.21095 c 5.382,6.59285 14.1276,12.1093 26.1025,12.1093 10.8983,0 14.2619,-4.44009 14.2619,-8.74558 0,-15.33844 -39.2878,-5.51645 -39.2878,-31.61868 0,-11.97476 13.051,-19.64393 26.102,-19.64393"
           inkscape:connector-curvature="0" />
        <path
           id="path78"
           style="fill:#c1c1c1;fill-opacity:1;fill-rule:evenodd;stroke:none"
           d="m 1585.7862,-594.9039 c 14.2619,0 25.1606,5.51645 25.1606,17.49116 0,13.05112 -11.9749,15.20389 -18.5677,16.28029 17.4911,6.59281 18.5677,29.46588 29.466,29.46588 l 0,1.0764 c -2.1527,1.07636 -4.3058,2.15277 -9.8221,2.15277 -23.9494,0 -18.5678,-29.33137 -33.7715,-29.33137 l -7.6691,0 0,18.43302 c 0,6.59281 2.1528,7.66918 5.5163,8.74558 l 0,2.15277 -26.2367,0 0,-2.15277 c 3.2293,-1.0764 5.5163,-2.15277 5.5163,-8.74558 l 0,-44.6698 c 0,-6.59282 -2.287,-7.66922 -5.5163,-8.74558 l 0,-2.15277 35.9242,0 z m -15.2038,29.46591 8.7456,0 c 7.669,0 16.2804,-3.22913 16.2804,-10.89834 0,-4.44009 -3.2293,-10.89835 -13.0515,-10.89835 l -7.5343,0 c -3.364,0 -4.4402,1.07636 -4.4402,5.3819 l 0,16.41479"
           inkscape:connector-curvature="0" />
      </g>
    </g>
  </g>
</svg>
